<?xml version="1.0" encoding="utf-8"?>
<!-- Generator: Adobe Illustrator 25.1.0, SVG Export Plug-In . SVG Version: 6.00 Build 0)  -->
<svg version="1.1" id="Layer_1" xmlns="http://www.w3.org/2000/svg" xmlns:xlink="http://www.w3.org/1999/xlink" x="0px" y="0px"
	 viewBox="0 0 1293.4 1098.1" style="enable-background:new 0 0 1293.4 1098.1;" xml:space="preserve">
<style type="text/css">
	.st0{fill:url(#SVGID_1_);}
	.st1{fill:url(#SVGID_2_);}
	.st2{fill:url(#SVGID_3_);}
	.st3{fill:url(#SVGID_4_);}
	.st4{fill:url(#SVGID_5_);}
	.st5{fill:url(#SVGID_6_);}
	.st6{fill:url(#SVGID_7_);}
	.st7{fill:url(#SVGID_8_);}
	.st8{fill:url(#SVGID_9_);}
	.st9{fill:url(#SVGID_10_);}
	.st10{fill:url(#SVGID_11_);}
	.st11{fill:url(#SVGID_12_);}
	.st12{fill:url(#SVGID_13_);}
	.st13{fill:url(#SVGID_14_);}
	.st14{fill:url(#SVGID_15_);}
	.st15{fill:url(#SVGID_16_);}
	.st16{fill:url(#SVGID_17_);}
	.st17{fill:url(#SVGID_18_);}
	.st18{fill:url(#SVGID_19_);}
	.st19{fill:url(#SVGID_20_);}
	.st20{fill:url(#SVGID_21_);}
	.st21{fill:url(#SVGID_22_);}
	.st22{fill:url(#SVGID_23_);}
	.st23{fill:url(#SVGID_24_);}
	.st24{fill:url(#SVGID_25_);}
	.st25{fill:url(#SVGID_26_);}
	.st26{fill:url(#SVGID_27_);}
	.st27{fill:#C2262C;}
	.st28{fill:#00FEFE;}
	.st29{fill:#FFFFFF;}
	.st30{fill:none;stroke:#00FEFE;stroke-width:4;stroke-miterlimit:10;}
	.st31{enable-background:new    ;}
</style>
<rect width="1293.4" height="2910.1"/>
<rect width="1293.4" height="1098.1"/>
<linearGradient id="SVGID_1_" gradientUnits="userSpaceOnUse" x1="220.0702" y1="557.7277" x2="1298.0502" y2="557.7277" gradientTransform="matrix(1 0 0 -1 0 1098)">
	<stop  offset="0" style="stop-color:#ED1C24"/>
	<stop  offset="9.000000e-02" style="stop-color:#E5242B"/>
	<stop  offset="0.23" style="stop-color:#CF3940"/>
	<stop  offset="0.4" style="stop-color:#AB5B61"/>
	<stop  offset="0.6" style="stop-color:#798A8E"/>
	<stop  offset="0.82" style="stop-color:#3AC6C8"/>
	<stop  offset="1" style="stop-color:#00FEFE"/>
</linearGradient>
<path class="st0" d="M220.2,511.3c23.3,45.1,47.5,90.3,83.9,126.4c32.8,32.5,73.9,56.6,119,67.3c47.8,11.4,98.6,8.1,145.8-4.7
	c23.1-6.2,45.5-14.8,66.8-25.7c18.7-9.5,37.6-13.7,58.1-8c31.7,8.8,56.7,35.9,89.8,40.2c11.7,1.5,23.8,1.4,35.5,1.4
	c12.7,0,25.4-0.5,38.1-1.4c24.7-1.8,49.2-5.4,73.4-10.7c46.5-10.2,91.9-26.9,133-51c34.5-20.2,66.2-46,96.7-71.9
	c32.3-27.5,63.4-56.9,90.1-90c21.5-26.7,42.8-57.8,48.4-92.4c1.1-6.9,1.5-13.8,1.1-20.8c-0.1-1.9-3.1-1.9-3,0
	c2.2,33.3-15.4,65.1-33.9,91.5c-23.7,33.8-53.2,63.5-83.7,91.1c-29,26.4-59.6,50.9-91.7,73.5c-38.4,26.9-82,46.2-126.9,59.1
	c-47.8,13.7-97.4,20.4-147.1,19.8c-11-0.1-22.6,0.2-33.4-2c-7.8-1.7-15.4-4.4-22.5-8.1c-15-7.4-28.8-16.9-43.9-24
	c-14.8-7.1-30.9-11.7-47.5-9.9c-21.2,2.3-39.5,15.2-58.9,23c-45.2,18.2-94.7,27.4-143.5,23.9c-48.5-3.5-94.9-21.3-133.3-51.1
	c-39-30.2-66.9-70.8-90.3-113.8c-6-11.1-11.8-22.3-17.6-33.5C222,508.1,219.4,509.6,220.2,511.3L220.2,511.3z"/>
<linearGradient id="SVGID_2_" gradientUnits="userSpaceOnUse" x1="206.13" y1="553.06" x2="1297.55" y2="553.06" gradientTransform="matrix(1 0 0 -1 0 1098)">
	<stop  offset="0" style="stop-color:#ED1C24"/>
	<stop  offset="9.000000e-02" style="stop-color:#E5242B"/>
	<stop  offset="0.23" style="stop-color:#CF3940"/>
	<stop  offset="0.4" style="stop-color:#AB5B61"/>
	<stop  offset="0.6" style="stop-color:#798A8E"/>
	<stop  offset="0.82" style="stop-color:#3AC6C8"/>
	<stop  offset="1" style="stop-color:#00FEFE"/>
</linearGradient>
<path class="st1" d="M1295.6,379.2c-1.5,16.9-8.9,32.6-17.6,46.9c-11,18.2-24.5,34.8-38.7,50.5c-32.2,35.8-68.5,67.8-105,99
	c-33.8,28.9-67.2,59-106.9,79.6c-40.5,21-83.1,36.8-127.9,45.2c-22.9,4.3-46.1,7-69.5,8.1c-11.6,0.6-23.2,0.7-34.9,0.5
	c-10.2-0.2-20.8,0-30.8-2.1c-30.5-6.3-54.9-28.5-84.7-37.1c-15.4-4.4-31.5-4.7-46.8,0c-10.9,3.3-21.1,8.5-32,11.8
	c-11.2,3.3-22.5,5.9-34,7.8c-9.1,1.6-17.8,4.5-26.7,6.8c-11.8,3.1-24,4.2-36.2,4.8c-24.9,1.2-50.2-0.6-74.6-6.2
	c-44.1-10.2-84.4-33-118.5-62.6s-60.7-66.2-85.4-103.7c-6-9.1-11.9-18.3-17.9-27.5c-1.1-1.6-3.6-0.1-2.6,1.5
	c25.4,38.9,50.4,78.4,82.8,111.9c29.4,30.4,64.7,55.7,104,71.5c22.4,9,46,14.7,70,16.9c23.7,2.3,49.1,2.6,72.5-2.3
	c9.3-2,18.3-5.2,27.5-7.2c11.3-2.5,22.7-4.1,33.9-7.2c20.5-5.8,39.4-17.3,61.3-16.9c33.7,0.6,60.5,23.5,90.5,35.5
	c17.4,7,35.6,7.1,54.2,7.2c23.7,0.1,47.5-1.4,71-4.5c44.7-5.9,88.3-18.3,129.3-36.9c20.2-9.1,40-19.1,58.3-31.5
	c18.2-12.3,34.9-26.9,51.7-41c38.3-32,76.3-64.6,111.2-100.3c15.6-15.9,30.6-32.5,43.8-50.4c10.7-14.5,20.6-30,26.6-47.1
	c2.5-6.8,4.1-14,4.7-21.2C1298.7,377.2,1295.7,377.2,1295.6,379.2L1295.6,379.2z"/>
<linearGradient id="SVGID_3_" gradientUnits="userSpaceOnUse" x1="190.2229" y1="546.4903" x2="1295.2629" y2="546.4903" gradientTransform="matrix(1 0 0 -1 0 1098)">
	<stop  offset="0" style="stop-color:#ED1C24"/>
	<stop  offset="9.000000e-02" style="stop-color:#E5242B"/>
	<stop  offset="0.23" style="stop-color:#CF3940"/>
	<stop  offset="0.4" style="stop-color:#AB5B61"/>
	<stop  offset="0.6" style="stop-color:#798A8E"/>
	<stop  offset="0.82" style="stop-color:#3AC6C8"/>
	<stop  offset="1" style="stop-color:#00FEFE"/>
</linearGradient>
<path class="st2" d="M1294.3,387.8c-4.4,15.4-14,29.1-23.8,41.5c-12.7,16.1-26.9,30.9-41.5,45.1c-34.8,34-72.1,65.2-108.6,97.2
	c-17.6,15.4-35.1,30.8-52.6,46.3c-16.2,14.2-32.7,26.9-51.7,37.2c-38.7,21-79.1,38.3-122.3,47.4c-44.1,9.3-90.8,13.1-135.8,9.4
	c-33.7-2.7-61.5-26.6-93.3-36c-16.3-4.8-33.5-5.8-50-1.2c-12.1,3.4-23.6,7.1-36.1,8.6c-9.3,1.1-18.9,0-28,1.5
	c-6.5,1.1-12.4,4.4-18.7,6.2c-11,3.2-22.9,3.2-34.2,3.2c-25.2,0.2-50.8-2.6-75-9.5c-43.9-12.4-83.7-37-118.1-66.5
	s-63.1-65-91.3-100.5c-6.8-8.6-13.6-17.2-20.6-25.6c-1.2-1.5-3.3,0.6-2.1,2.1c29.9,36.4,57.8,74.4,91.5,107.4
	c31.1,30.5,67.2,57,107.4,74.4c21.5,9.3,44.3,15.6,67.5,18.6c12.5,1.7,25,2.5,37.6,2.6c11.3,0,23,0.1,34.1-2.3
	c6.8-1.5,12.9-4.8,19.6-6.6c9.7-2.5,20.5-0.9,30.4-2.1c21.3-2.4,41-12.6,62.8-11.5c35.8,1.8,64.3,25.9,97.5,36.3
	c18.7,5.9,39.2,5.1,58.6,4.8c22.4-0.3,44.8-2,67-5.2c22.6-3.2,44.9-8.1,66.7-14.8c20.9-6.5,40.5-15.6,60.3-25
	c18.9-9,37.6-18.5,54.6-31c17.7-13,33.6-28.4,50-42.9c37.7-33.2,76.1-65.5,113-99.5c16.7-15.4,33-31.1,48.2-47.9
	c11.9-13.1,23.4-27,32.1-42.6c3.3-5.8,6-12,7.9-18.5c0.2-0.8-0.4-1.6-1.2-1.8C1295.3,386.7,1294.6,387.1,1294.3,387.8L1294.3,387.8z
	"/>
<linearGradient id="SVGID_4_" gradientUnits="userSpaceOnUse" x1="176.22" y1="540.0191" x2="1294.84" y2="540.0191" gradientTransform="matrix(1 0 0 -1 0 1098)">
	<stop  offset="0" style="stop-color:#ED1C24"/>
	<stop  offset="9.000000e-02" style="stop-color:#E5242B"/>
	<stop  offset="0.23" style="stop-color:#CF3940"/>
	<stop  offset="0.4" style="stop-color:#AB5B61"/>
	<stop  offset="0.6" style="stop-color:#798A8E"/>
	<stop  offset="0.82" style="stop-color:#3AC6C8"/>
	<stop  offset="1" style="stop-color:#00FEFE"/>
</linearGradient>
<path class="st3" d="M1293.1,396.5c-7.6,13.3-18.4,24.6-29.2,35.3c-14.6,14.5-30,28.1-45.6,41.5c-37.2,31.9-75.6,62.3-112.2,94.8
	c-17.5,15.6-34.7,31.5-51.8,47.6c-15.5,14.7-30.8,28.5-49.4,39.2c-18.1,10.4-37.2,19.6-56,28.7c-19.5,9.3-40.2,16-61.2,21
	c-43.1,10.2-88.2,13.8-132.3,12c-9.9-0.4-19.6-1.2-29.2-3.9c-8.9-2.6-17.5-5.8-25.9-9.7c-16.8-7.4-33.2-15.8-50.8-21.1
	s-35.5-6.8-53.5-2.7c-12.1,2.9-24.6,3.7-36.9,2.4c-6.5-0.8-14.5-4.3-21-2.3c-4.6,1.4-8.1,5-12.8,6.3c-11,3.1-23.8,2.1-35.1,1.7
	c-24.7-0.9-49.9-4.7-73.5-12.4C327.4,645.5,263.7,573.2,201,507.2c-7.6-8-15.4-16-23.4-23.8c-1.4-1.3-3.5,0.8-2.1,2.1
	c34.4,33.5,65.4,70.3,100.5,103.1c32.3,30.2,68.5,57.6,108.6,76.5c21.2,10,43.7,17.1,66.8,21c11.8,2,23.7,3.3,35.6,3.9
	c11.2,0.5,23,1,34.2-0.7c6.1-0.9,10.3-3.3,15.4-6.2c6.3-3.5,14.9,0.4,21.5,1.2c11.1,1.4,22.4,1,33.4-1.2c10.8-2.1,20.9-4.2,32-3.4
	c38.3,2.7,69.5,28.2,106.1,36.8c19.9,4.7,41.5,3.6,61.8,3c22-0.6,43.9-2.6,65.7-6c22.1-3.4,43.8-8.7,65-15.9
	c20.3-7,39.1-17.1,58.2-26.6c17.7-8.7,35.1-17.8,50.6-30.1c17.6-13.9,33.2-30.6,49.7-45.8c36.8-34,75.4-65.8,113.9-98
	c31.2-26,64.3-52,90.1-83.5c4.1-4.9,7.8-10.2,11.1-15.7c0.4-0.7,0.1-1.6-0.6-2C1294.4,395.6,1293.5,395.8,1293.1,396.5L1293.1,396.5
	z"/>
<linearGradient id="SVGID_5_" gradientUnits="userSpaceOnUse" x1="161.26" y1="533.5704" x2="1293.4399" y2="533.5704" gradientTransform="matrix(1 0 0 -1 0 1098)">
	<stop  offset="0" style="stop-color:#ED1C24"/>
	<stop  offset="9.000000e-02" style="stop-color:#E5242B"/>
	<stop  offset="0.23" style="stop-color:#CF3940"/>
	<stop  offset="0.4" style="stop-color:#AB5B61"/>
	<stop  offset="0.6" style="stop-color:#798A8E"/>
	<stop  offset="0.82" style="stop-color:#3AC6C8"/>
	<stop  offset="1" style="stop-color:#00FEFE"/>
</linearGradient>
<path class="st4" d="M1292,405.2c-10.4,10.5-22.1,19.6-33.7,28.7c-16.2,12.6-32.7,24.9-49.2,37.1c-38.3,28.6-76.8,57.3-112.6,89
	c-18,15.9-35.4,32.6-52.5,49.6c-15,15-29.1,30.9-47,42.7c-16.4,10.7-34.4,18.6-51.5,27.9c-19.2,10.4-38.6,18.9-59.7,24.9
	c-42.3,12-86.9,16.1-130.7,15.7c-11.7-0.1-23.6-0.2-35.1-2.2c-9.4-1.8-18.7-4.5-27.7-8c-19.5-7.3-38.3-16.7-58.2-22.9
	c-9.2-3-18.6-5-28.2-6c-10.8-1.1-20.9,0.8-31.5,1.3c-11.1,0.5-22.2-1.4-32.5-5.7c-2.9-1.2-9.8-6.2-13.4-4c-0.8,0.5-1.1,1.4-1.7,2.1
	c-1.2,1.9-3,3.3-5.2,4c-4.7,1.6-9.9,1.5-14.7,1.5c-6.3,0.1-12.7-0.1-19.1-0.4c-24.7-1.5-49.9-5.9-73.2-14.1
	c-90.7-32-155.8-107.8-225.8-169.7c-8.5-7.5-17.2-14.9-26.2-21.8c-1.5-1.2-3.6,0.9-2.1,2.1c38.4,29.8,72.2,65.3,108.3,97.8
	c34,30.6,70.8,59.4,111.7,80.1c21.1,10.7,43.6,18.5,66.8,23.2c11.7,2.4,23.5,4.1,35.4,5c11.4,0.9,23.6,1.9,35,0.2
	c5-0.7,8.3-2.1,11.5-5.8c1-1.1,0.4-1.4,1.9-1.5c1.2-0.1,3.1,1.2,4.2,1.7c2.2,1,4.5,2,6.7,2.9c9.4,3.8,19.5,5.7,29.6,5.5
	c11-0.2,21.6-2.5,32.7-1.6c42.2,3.5,77.3,31.8,118.9,37.6c21.5,3,44.1,2.1,65.8,1c21.9-1.1,43.6-3.6,65.2-7.5
	c21.5-4,42.9-9.7,63.2-18c19.2-7.9,37.1-18.6,55.6-28.1c16.7-8.6,32.8-18,46.7-30.8c16.8-15.4,32.1-32.5,48.6-48.2
	c36.5-34.9,75.8-66.4,116.1-96.8c32-24.2,65-47.2,95.7-73.1c4.9-4.2,9.8-8.5,14.4-13.1C1295.5,406,1293.4,403.9,1292,405.2
	L1292,405.2z"/>
<linearGradient id="SVGID_6_" gradientUnits="userSpaceOnUse" x1="146.32" y1="527.248" x2="1292.02" y2="527.248" gradientTransform="matrix(1 0 0 -1 0 1098)">
	<stop  offset="0" style="stop-color:#ED1C24"/>
	<stop  offset="9.000000e-02" style="stop-color:#E5242B"/>
	<stop  offset="0.23" style="stop-color:#CF3940"/>
	<stop  offset="0.4" style="stop-color:#AB5B61"/>
	<stop  offset="0.6" style="stop-color:#798A8E"/>
	<stop  offset="0.82" style="stop-color:#3AC6C8"/>
	<stop  offset="1" style="stop-color:#00FEFE"/>
</linearGradient>
<path class="st5" d="M1291,414c-44.8,26.5-89.5,53.2-132.2,83.1c-26.6,18.5-52.6,38.1-76.9,59.5c-24.8,21.8-47.9,45.5-70.2,69.9
	c-9.5,10.4-19.2,20.2-30.9,28.1c-10,6.8-20.8,12.1-31.5,17.7c-12.6,6.6-24.6,14.3-37.3,20.7c-13.4,6.6-27.5,12-41.9,16
	c-28.6,8.2-58.4,12.5-88,14.4s-61.7,3.8-90.7-4.1c-32.9-8.9-63.2-26.3-96.9-32.4c-7.9-1.5-16-2.1-24-1.9c-8.2,0.2-16,0-23.9-2.7
	s-14.9-7.2-21.3-12.5c-1.1-0.9-3.2-3.5-4.9-3.3c-0.8,0.2-1.3,1-1,1.8c0,0.1,0.1,0.2,0.1,0.4c4.8,6.5-13.5,5.6-15.9,5.6
	c-16.4-0.2-32.7-1.9-48.7-5c-30.5-6-59.7-17.1-86.5-32.8c-50.5-29.3-94-68.9-138.1-106.8c-26.4-22.7-53.1-45.5-82.8-63.8
	c-1.6-1-3.2,1.6-1.5,2.6c29.6,18.1,56,40.8,82.2,63.3c23.4,20,46.4,40.5,70.5,59.7c24.7,19.7,50.5,38.3,78.4,53.3
	c29.2,15.7,61,25.9,93.9,30.2c8.7,1.2,17.4,1.9,26.2,2.2c6.9,0.2,15.6,1.4,22.2-1.4c3.8-1.6,5.4-5.1,2.8-8.6l-0.9,2.2
	c-1.8,0.3-1.4-0.6,0,0.9c1.5,1.4,3.2,2.7,4.9,3.9c5.1,4,10.8,7.3,16.8,9.9c13.5,5.5,27.2,3,41.3,4.4c31.8,3.1,60.8,18.5,90.6,28.8
	c13.2,4.6,26.8,8.3,40.7,9.4c15.7,1.1,31.5,1.3,47.2,0.7c29.2-0.9,58.6-3.9,87.2-10.2c27.9-6.1,54.3-15.6,78.9-30.1
	c22.1-13,46.5-22.6,66.3-39.5c11.1-9.5,20.5-20.9,30.4-31.5c11.4-12.2,23.1-24.2,35.2-35.8c25.1-24,51.9-46.2,80.1-66.6
	c48.6-35.5,100.1-66.5,151.9-97.1c0.7-0.5,0.9-1.4,0.4-2.1C1292.5,413.9,1291.7,413.6,1291,414z"/>
<linearGradient id="SVGID_7_" gradientUnits="userSpaceOnUse" x1="131.37" y1="520.7784" x2="1290.59" y2="520.7784" gradientTransform="matrix(1 0 0 -1 0 1098)">
	<stop  offset="0" style="stop-color:#ED1C24"/>
	<stop  offset="9.000000e-02" style="stop-color:#E5242B"/>
	<stop  offset="0.23" style="stop-color:#CF3940"/>
	<stop  offset="0.4" style="stop-color:#AB5B61"/>
	<stop  offset="0.6" style="stop-color:#798A8E"/>
	<stop  offset="0.82" style="stop-color:#3AC6C8"/>
	<stop  offset="1" style="stop-color:#00FEFE"/>
</linearGradient>
<path class="st6" d="M1290,422.9c-33.3,10.8-65.3,26.8-95.9,43.6c-40.7,22.3-80.1,47.6-115.8,77.1c-19.6,16.4-38.2,34-55.6,52.7
	c-15.3,16.4-28.9,34.9-45.3,50.2c-13.1,12.2-28.9,20-44.5,28.5c-18.6,10-35.7,22.2-55.4,30.1c-40,16-84.1,21.5-126.9,23.1
	c-21.6,0.8-44.3,1.8-65.5-3.1c-21.4-4.9-41.4-14.3-61.6-22.5c-18.6-7.5-38.2-14.8-58.4-15.1c-5.3-0.1-10.1,0.7-15.3-0.7
	c-5.4-1.3-10.6-3.2-15.6-5.6c-8.7-4.3-14.8-10.6-21-17.8c-0.8-1-1-0.7-0.2,0c0.5,0.5,1.3,0.6,1.7,1.2c2.2,3-3.5,3.1-5.6,3.3
	c-13.3,1-27.5-0.9-40.6-3c-25.5-4-50.8-11.2-74-22.4c-86.1-41.5-149.7-117-230-167.5c-10.3-6.5-21-12.5-32-17.8
	c-1.7-0.8-3.3,1.8-1.5,2.6c48.7,23.2,90.8,59.5,132,93.8c37.1,31,75.1,62.3,117.9,85.2c23.3,12.5,48.4,21.5,74.3,26.7
	c12.8,2.6,25.7,4.3,38.7,5.1c5.7,0.3,11.7,0.8,17.4,0.1c2-0.3,5-0.6,6.4-2.3c4.4-5.1-7.1-11.2-7.9-6.1c-0.2,1.4,1.1,3,1.8,4
	c3.2,4.2,6.9,8,11,11.2c7.3,5.8,15.8,9.4,24.7,11.9c10.1,2.8,20.7,0.8,31.1,2.4c11.1,1.8,21.9,5.3,32.5,9.2
	c21.8,8.1,42.8,18.5,65.2,24.9c22,6.4,45.1,6.1,67.9,5.6c22.3-0.5,44.5-2.4,66.6-5.8c22.6-3.5,45-8.7,66.4-17
	c20.6-8,38.3-20.6,57.7-31c16.1-8.7,32.3-16.8,45.8-29.5c8.6-8.1,16-17.5,23.8-26.4c8.2-9.4,16.5-18.6,25.1-27.6
	c36.9-38.8,78.7-71.7,124.1-100.1c37.3-23.3,76.5-44.5,117.3-60.8c6.7-2.7,13.5-5.2,20.4-7.4C1292.6,425.2,1291.9,422.3,1290,422.9
	L1290,422.9z"/>
<linearGradient id="SVGID_8_" gradientUnits="userSpaceOnUse" x1="116.42" y1="514.4232" x2="1289.1899" y2="514.4232" gradientTransform="matrix(1 0 0 -1 0 1098)">
	<stop  offset="0" style="stop-color:#ED1C24"/>
	<stop  offset="9.000000e-02" style="stop-color:#E5242B"/>
	<stop  offset="0.23" style="stop-color:#CF3940"/>
	<stop  offset="0.4" style="stop-color:#AB5B61"/>
	<stop  offset="0.6" style="stop-color:#798A8E"/>
	<stop  offset="0.82" style="stop-color:#3AC6C8"/>
	<stop  offset="1" style="stop-color:#00FEFE"/>
</linearGradient>
<path class="st7" d="M1288.7,431.9c-37,5.1-73.1,19.8-106.7,35.5c-43.4,20.3-85.3,45.4-122.3,76c-19.7,16.5-38.2,34.5-55.2,53.8
	c-8.2,9.2-16.2,18.6-23.9,28.1c-7.2,8.8-14,17.8-22.3,25.5c-13,12.1-29,19.4-44.3,28c-9.8,5.5-18.8,12.1-28.4,17.9
	c-9.1,5.4-18.6,10-28.5,13.8c-41.4,15.8-86.9,20.7-130.9,21.6c-22.9,0.5-45.7,0-67.8-6.3c-21.9-6.3-42.7-15.7-64.1-23.5
	c-10.3-3.9-20.8-7-31.5-9.4c-10.4-2.1-21-1.2-30.8-5.6c-8.2-3.6-15.5-9.1-21.2-16c-2.7-3.4-6.5-8-7.9-12.1c-1-2.9,0.4-2.9,3-2.3
	c1.2,0.3,4.3,1.2,4.9,2.5c1,2.2-4.6,2-6.3,2c-13.4,0.3-27.2-1.6-40.4-4c-25.9-4.8-51.6-13-75-25.2
	C301.9,586.8,237.4,508.1,150,462.9c-10.7-5.5-21.7-10.4-33-14.5c-1.8-0.6-2.6,2.2-0.8,2.9c52.1,18.8,97.9,54.2,140.4,88.9
	c38.7,31.6,77.2,64.5,120.9,89.2c23.3,13.1,48.3,22.7,74.3,28.6c13.4,3.1,27.1,5.2,40.8,6.1c4.4,0.3,17.7,2.9,21.1-2
	c3.7-5.2-9.2-10.4-12.9-7.6c-4.1,3.1,1.5,10,3.3,12.7c4.7,7.5,11,13.8,18.4,18.6c3.8,2.4,7.9,4.4,12.1,6c5.4,2.2,9.5,1.9,15.2,2.4
	c11.4,0.9,22.6,4,33.5,7.6c23.3,7.7,45.6,18.2,69.1,25.5c22.9,7.1,45.9,8.4,69.7,8c22.7-0.3,45.3-2,67.8-5.1
	c23.4-3.3,46.7-8.5,68.8-17c9.9-3.7,19.4-8.3,28.4-13.8c10-6.1,19.5-13,29.8-18.7c15.8-8.8,32-16.6,45.2-29.3
	c8.7-8.4,15.9-18.2,23.6-27.6c8.3-10.1,16.8-20,25.6-29.7c37-40.5,79.9-74,127.6-101.1c39.6-22.5,82.1-42.1,126.4-53.4
	c7.9-2.1,16-3.7,24.1-4.9C1291.4,434.5,1290.6,431.6,1288.7,431.9L1288.7,431.9z"/>
<linearGradient id="SVGID_9_" gradientUnits="userSpaceOnUse" x1="101.47" y1="508.5655" x2="1287.8" y2="508.5655" gradientTransform="matrix(1 0 0 -1 0 1098)">
	<stop  offset="0" style="stop-color:#ED1C24"/>
	<stop  offset="9.000000e-02" style="stop-color:#E5242B"/>
	<stop  offset="0.23" style="stop-color:#CF3940"/>
	<stop  offset="0.4" style="stop-color:#AB5B61"/>
	<stop  offset="0.6" style="stop-color:#798A8E"/>
	<stop  offset="0.82" style="stop-color:#3AC6C8"/>
	<stop  offset="1" style="stop-color:#00FEFE"/>
</linearGradient>
<path class="st8" d="M1287.8,440.9c-40.5,0.1-81.2,12.7-118.5,27.6c-45.3,18.1-88.7,42.3-126.4,73.4c-20.4,17.1-39.4,35.9-56.5,56.3
	c-8,9.4-15.8,19.1-23.3,28.9c-7.2,9.3-14,18.8-22.4,27c-12.9,12.3-29.1,19.3-44.3,28.3c-9.5,5.7-18.2,12.6-27.6,18.5
	c-9.4,5.8-19.3,10.6-29.7,14.4c-42.2,15.9-88.7,20.4-133.5,21c-24.4,0.3-47.7-1.6-71.1-8.7c-23.2-7.1-45.5-16.8-68.5-24.5
	c-9.8-3.5-19.9-6.1-30.1-8c-4.6-0.8-8.8-1-13-3.2c-5.1-2.5-9.8-5.8-14-9.6c-7.6-7.4-13.3-16.6-16.4-26.8c-1.9-6,3.8-5.6,8.1-4.5
	c1.9,0.5,4.2,1.2,5.7,2.5c2.1,1.8-0.2,1.5-2.7,1.7c-13,1-27-1.7-39.7-4.1c-27-5.3-53.9-14.4-78-27.7c-43.5-24-81.7-56.7-120-87.9
	c-39.6-32.2-81.4-63.3-128.6-83.5c-11.5-5-23.3-9-35.3-12.2c-0.8-0.2-1.6,0.3-1.8,1.1c-0.2,0.8,0.3,1.6,1,1.8
	c55.3,14.4,105.2,48.8,149.1,84.1c39.7,31.9,78.4,66,122.2,92.4c23.6,14.2,49.2,24.8,75.9,31.5c14.1,3.6,28.5,6,43,7.1
	c3.5,0.3,15.5,2.6,18.4-1.6c4.3-6.2-12.7-9.3-16.1-8.7c-3.8,0.7-5.5,3.5-4.7,7.3c1.8,8.7,7.8,18.3,13.4,25.1s15,14.4,23.7,16.9
	c4.3,1.2,9.1,1.2,13.5,2c5.8,1.2,11.6,2.8,17.3,4.5c24.2,7.4,47.4,17.7,71.4,25.4s47.5,10.7,72.6,10.5c23.1,0,46.1-1.6,69-4.6
	c23.7-3.2,47.4-8.1,69.9-16.5c10.1-3.7,19.8-8.4,29-13.9c10.3-6.3,19.8-13.9,30.3-20.1c15.4-9.1,31.7-16.3,44.6-29
	c8.7-8.6,15.8-18.7,23.2-28.3c8.2-10.6,16.6-20.9,25.4-31c36.5-41.9,80.6-76.7,129.9-102.3c42.9-22.5,89.8-40.6,137.9-47.5
	c9.1-1.3,18.3-2,27.6-2.1c0.8,0,1.5-0.7,1.5-1.5S1288.6,440.8,1287.8,440.9L1287.8,440.9z"/>
<linearGradient id="SVGID_10_" gradientUnits="userSpaceOnUse" x1="86.52" y1="510.984" x2="1286.53" y2="510.984" gradientTransform="matrix(1 0 0 -1 0 1098)">
	<stop  offset="0" style="stop-color:#ED1C24"/>
	<stop  offset="9.000000e-02" style="stop-color:#E5242B"/>
	<stop  offset="0.23" style="stop-color:#CF3940"/>
	<stop  offset="0.4" style="stop-color:#AB5B61"/>
	<stop  offset="0.6" style="stop-color:#798A8E"/>
	<stop  offset="0.82" style="stop-color:#3AC6C8"/>
	<stop  offset="1" style="stop-color:#00FEFE"/>
</linearGradient>
<path class="st9" d="M1286.5,449.9c-43.2-4.4-87.8,5.3-128.5,19c-47.5,16-93.1,39.5-131.9,71.4c-21.3,17.5-40.3,37.5-57.8,58.9
	c-7.9,9.7-15.4,19.6-22.8,29.6c-7.2,9.8-14,20-22.7,28.5c-12.6,12.3-29,19-43.8,28.3c-9.8,6.2-18.5,13.8-28.2,19.9
	c-9.5,5.8-19.5,10.7-30,14.4c-42.6,15.7-89.5,19.9-134.5,20.1c-25.4,0.2-50.6-3.1-75.1-9.6c-24.3-6.4-48.1-14.9-71.6-23.8
	c-10-3.8-20.6-7-30.3-11.6s-16.2-12.2-20.5-21.8c-2.2-5.2-4-10.6-5.5-16c-0.8-3-3.6-8.4-1.5-11.3c2.7-3.8,10.6-1.9,14.2-0.9
	c2.2,0.5,4.4,1.4,6.4,2.5c2.3,1.4,1.2,1-1.1,1.2c-5,0.6-10.3-0.2-15.2-0.7c-7.8-0.8-15.6-2-23.3-3.6c-27.7-5.7-55.4-15.7-79.9-29.9
	c-44.5-25.8-83.4-60.5-123.2-92.8c-40.1-32.5-83.5-62.2-132.3-80c-13.1-4.8-26.6-8.4-40.3-10.8c-1.9-0.3-2.7,2.6-0.8,2.9
	c30.8,5.3,59.9,17.5,87.2,32.4c24.4,13.3,47.6,28.7,69.4,45.9c41.3,32.5,80.5,68.3,124.9,96.7c24.3,15.5,50.8,27.2,78.6,34.7
	c14.4,4,29.2,6.6,44.1,7.8c3.1,0.2,14,2.4,16.1-1.7c3.3-6.4-16-9-19.1-8.9c-4,0.2-8.4,1.6-9.2,6c-0.6,3.1,0.9,6.6,1.7,9.5
	c1.5,5.7,3.3,11.3,5.5,16.7c3.4,8.2,8.4,15.5,15.7,20.7c8.3,5.9,18.8,8.7,28.2,12.2c24.8,9.4,49.8,18.6,75.3,25.8
	c25.4,7.1,50.8,11.2,77.2,11.2c23.3,0.1,46.6-1.3,69.8-4.2c23.7-3,47.4-7.8,69.9-16c10.2-3.7,20.1-8.3,29.5-13.9
	c10.5-6.4,19.8-14.6,30.2-21.1c15.2-9.5,31.9-16.4,44.7-29.4c8.5-8.5,15.1-18.5,22.2-28.1c8.4-11.5,17-22.7,26.1-33.6
	c36.5-44.1,82.2-79.7,133.9-104.4c45.9-21.9,96.9-37.9,148-40.2c10.1-0.5,20.3-0.3,30.3,0.7C1288.4,453.1,1288.4,450.1,1286.5,449.9
	L1286.5,449.9z"/>
<linearGradient id="SVGID_11_" gradientUnits="userSpaceOnUse" x1="71.56" y1="513.3481" x2="1285.24" y2="513.3481" gradientTransform="matrix(1 0 0 -1 0 1098)">
	<stop  offset="0" style="stop-color:#ED1C24"/>
	<stop  offset="9.000000e-02" style="stop-color:#E5242B"/>
	<stop  offset="0.23" style="stop-color:#CF3940"/>
	<stop  offset="0.4" style="stop-color:#AB5B61"/>
	<stop  offset="0.6" style="stop-color:#798A8E"/>
	<stop  offset="0.82" style="stop-color:#3AC6C8"/>
	<stop  offset="1" style="stop-color:#00FEFE"/>
</linearGradient>
<path class="st10" d="M1285.6,459c-45.7-8.4-93.7-2.2-138,10.1c-49.7,13.7-97.5,36.5-137.6,69.1c-22.2,18-41.6,39-59.2,61.5
	c-8.2,10.5-16,21.3-23.6,32.2c-7.2,10.3-13.9,21-23,29.7c-12.6,12.2-29.5,18.6-43.8,28.4c-9.8,6.8-18.6,15-28.8,21.2
	c-10.1,6-20.7,10.8-31.8,14.5c-43.2,14.9-90.7,18.7-136.2,18.3c-51.8-0.5-104-17-151-37.9c-9.6-4.3-19.8-8.5-26.9-16.5
	c-7.4-8.3-10.5-19.3-12.7-30c-1.3-6.2-6.5-18.5,2-21.4c5.2-1.8,11.6-0.5,16.8,0.9c2.3,0.7,4.5,1.5,6.6,2.5c2.2,0.9,2.7,1.2-0.1,1
	c-12.8-0.9-25.2-1.9-37.8-4.7c-28.8-6.4-57.5-17.5-82.6-33c-45.2-27.8-84.7-64.4-125.9-97.6c-41.6-33.6-88.5-62.7-140.3-77.3
	c-13.1-3.7-26.5-6.2-40-7.5c-1.9-0.2-1.9,2.8,0,3c32.8,3.2,64.2,14.2,93.6,28.8c25.7,12.7,50,28,72.7,45.6
	c42.3,33,81.7,70,126.4,99.9c25.1,16.8,52.8,29.5,81.9,37.7c14.5,4.1,29.3,6.8,44.3,8c2.5,0.2,11.5,1.8,12.7-2
	c2.2-6.6-19-8.9-22.4-8.9c-4.3,0-9.7,0.8-12.3,4.8c-1,1.8-1.5,3.9-1.2,5.9c0.4,6.1,2.1,12.5,3.5,18.5c2.2,9.4,5.3,18.8,11.5,26.5
	c6.5,8.1,15.5,12.5,24.8,16.8c23.3,10.6,47.4,19.5,72,26.5c26.6,7.7,53.7,13.1,81.5,13.7c22.8,0.4,45.7-0.7,68.4-3.3
	c24.8-2.8,49.6-7.3,73.2-15.6c10.8-3.7,21.1-8.5,30.9-14.3c10.7-6.5,19.8-15.1,30.2-22.1c14.6-9.8,31.4-16.3,44-28.9
	c8.8-8.8,15.5-19.2,22.5-29.4c8.6-12.4,17.5-24.6,26.9-36.3c36.9-46.1,82.7-82,136.9-105.6c48.9-21.4,103.3-34.5,156.9-33
	c11.6,0.3,23.1,1.5,34.4,3.5C1286.7,462.2,1287.5,459.4,1285.6,459L1285.6,459z"/>
<linearGradient id="SVGID_12_" gradientUnits="userSpaceOnUse" x1="56.6" y1="515.7159" x2="1283.95" y2="515.7159" gradientTransform="matrix(1 0 0 -1 0 1098)">
	<stop  offset="0" style="stop-color:#ED1C24"/>
	<stop  offset="9.000000e-02" style="stop-color:#E5242B"/>
	<stop  offset="0.23" style="stop-color:#CF3940"/>
	<stop  offset="0.4" style="stop-color:#AB5B61"/>
	<stop  offset="0.6" style="stop-color:#798A8E"/>
	<stop  offset="0.82" style="stop-color:#3AC6C8"/>
	<stop  offset="1" style="stop-color:#00FEFE"/>
</linearGradient>
<path class="st11" d="M1284.2,468c-48.9-12.2-101.1-9.2-149.9,2c-51.4,11.9-101.2,33.7-142.2,67.2c-22.7,18.5-42.2,40.4-59.8,63.8
	c-8.3,11.1-16.2,22.5-23.8,34.1c-7,10.7-13.7,21.7-23.1,30.6c-13,12.2-30.5,18.7-44.7,29.4c-9.6,7.3-18.2,15.5-28.6,21.6
	c-10.2,5.8-20.9,10.4-32,14c-23.9,7.9-48.9,12.1-73.9,14.5c-22.7,2.2-45.8,3.4-68.6,2.2c-27.3-1.5-54.2-7.2-80.4-14.9
	c-23.7-7-48-15.3-69.1-28.2c-10-6.1-17.8-14.4-22-25.5c-4.3-11.4-5.4-24-6.5-36c-0.7-7.3,2.5-10.8,9.8-11.7c6.3-0.8,13,0.3,19,2.1
	c2.2,0.6,4.3,1.6,6.5,2.4c2,0.7,2.9,1,0.4,0.7c-3.7-0.5-7.7-0.2-11.5-0.6c-8.6-0.9-17.1-2.4-25.6-4.4c-29.8-7-58.3-18.9-84.1-35.3
	c-45.8-29.5-85.6-67.7-127.8-101.8c-42.8-34.5-92.2-62.8-146.3-74.9c-14.3-3.2-28.8-5.1-43.4-5.5c-1.9-0.1-1.9,2.9,0,3
	c34.1,1,67.4,10.4,98.4,24.3c26.4,11.6,51.3,26.2,74.3,43.6c44.2,33.8,84.4,72.7,129.9,104.9c24.9,17.6,52.4,31.1,81.5,40.1
	c15.4,4.9,31.3,8.1,47.4,9.5c2.4,0.2,10.4,1.7,11.5-1.9c2-6.5-20.3-8.9-23.5-9.1c-5.2-0.3-11.7-0.1-16,3.3c-5.8,4.6-3.6,12.7-2.9,19
	c2.4,22.1,7.4,42.5,27.1,55.2c20.6,13.3,45,21.7,68.3,28.8c26.9,8.2,54.7,14.3,82.8,16c24.1,1.5,48.5,0.2,72.5-2.3
	c25.2-2.6,50.5-6.9,74.6-15c11.3-3.7,22.2-8.6,32.5-14.6c10.7-6.4,19.5-15.1,29.4-22.5c14.5-10.7,32.2-17.2,45-30.1
	c8.8-9,15.4-19.8,22.3-30.2c8.2-12.4,16.6-24.7,25.7-36.5c19.8-25.9,42.4-49.7,68.7-69.1c23-16.7,48-30.3,74.5-40.5
	c52-20.4,109.4-30.4,165.2-25.2c12.7,1.2,25.3,3.3,37.6,6.4C1285.3,471.3,1286.1,468.4,1284.2,468L1284.2,468z"/>
<linearGradient id="SVGID_13_" gradientUnits="userSpaceOnUse" x1="41.6" y1="518.1175" x2="1282.65" y2="518.1175" gradientTransform="matrix(1 0 0 -1 0 1098)">
	<stop  offset="0" style="stop-color:#ED1C24"/>
	<stop  offset="9.000000e-02" style="stop-color:#E5242B"/>
	<stop  offset="0.23" style="stop-color:#CF3940"/>
	<stop  offset="0.4" style="stop-color:#AB5B61"/>
	<stop  offset="0.6" style="stop-color:#798A8E"/>
	<stop  offset="0.82" style="stop-color:#3AC6C8"/>
	<stop  offset="1" style="stop-color:#00FEFE"/>
</linearGradient>
<path class="st12" d="M1282.9,477c-52.1-15.9-108.5-16.3-161.8-6.2c-53.7,10.2-106.1,31.6-148.3,66.9c-22.8,19.1-42.3,41.8-59.6,66
	c-8.4,11.8-16.4,24-24,36.4c-6.4,10.3-12.8,20.9-21.8,29.3c-5.7,5.3-12.5,9-19.2,12.8c-8.6,4.8-16.7,10.2-24.3,16.4
	c-9.8,8-18.5,16.7-29.6,23c-10.8,6-22.2,10.8-34,14.3c-24.5,7.7-50.2,11.6-75.8,13.8c-23.8,2-48,3-71.8,0.9
	c-27.9-2.5-55.7-8.6-82.4-17.1c-22.2-7.1-48-15.9-64.5-33.2c-8.2-8.7-12.6-19.4-14.8-31.1c-1-5.9-1.7-11.9-2-17.9
	c-0.4-5.6-2-13.3-0.4-18.9c3.6-12.5,26.4-7.8,35.1-5.5c2.4,0.6,4.7,1.3,6.9,2.3c0.8,0.3,1.6,1,2.5,1.3c1,0.3,0.7-0.3-0.3-0.6
	c-2.3-0.6-5.5,0-7.9-0.2c-9.4-0.9-18.7-2.5-27.9-4.8c-30.7-7.4-59.8-20.1-86.1-37.6c-46.6-31.1-86.8-71.2-130.3-106.3
	c-44.1-35.6-95.9-62.9-152.2-72.7c-15.5-2.7-31.1-3.8-46.8-3.4c-1.9,0.1-1.9,3.1,0,3c35.6-1.1,70.7,6.8,103.6,19.9
	c27.6,11,54.1,25.2,77.9,43.1c45.7,34.5,86.4,75.2,132.6,109.2c25.4,18.8,53.8,33.3,83.9,42.9c15.1,5,30.7,8.2,46.5,9.7
	c2.1,0.2,9.9,1.5,10.4-2.1c0.9-6.6-22.5-8.8-26.3-9c-12.1-0.9-25.2,1.9-24.7,16.3c0.8,23.2,2,48.1,19.4,65.5
	c16.8,16.8,41.8,25.5,63.8,32.6c26.8,8.7,54.4,14.6,82.4,17.4c25.2,2.4,50.8,1.3,75.9-1c26.1-2.4,52.3-6.5,77.3-14.7
	c11.4-3.6,22.4-8.4,32.8-14.4c10.8-6.3,19.3-14.9,28.9-22.7c14.5-11.8,33.1-18.3,46.1-31.8c8.8-9.1,15.1-20.1,21.8-30.7
	c8.1-12.9,16.5-25.7,25.5-38c19.5-26.7,42.2-51.3,68.9-71c23.8-17.5,50.4-30.9,78.2-40.7c55.6-19.7,117-26.8,175.4-17.8
	c13.6,2.1,27.1,5.1,40.2,9.1C1284,480.4,1284.8,477.5,1282.9,477L1282.9,477z"/>
<linearGradient id="SVGID_14_" gradientUnits="userSpaceOnUse" x1="26.58" y1="520.987" x2="1281.35" y2="520.987" gradientTransform="matrix(1 0 0 -1 0 1098)">
	<stop  offset="0" style="stop-color:#ED1C24"/>
	<stop  offset="9.000000e-02" style="stop-color:#E5242B"/>
	<stop  offset="0.23" style="stop-color:#CF3940"/>
	<stop  offset="0.4" style="stop-color:#AB5B61"/>
	<stop  offset="0.6" style="stop-color:#798A8E"/>
	<stop  offset="0.82" style="stop-color:#3AC6C8"/>
	<stop  offset="1" style="stop-color:#00FEFE"/>
</linearGradient>
<path class="st13" d="M1281.6,486.1c-57.2-20.1-119.9-23.6-179.6-13.6c-59.3,9.9-116,34.1-159.8,76.1c-22.9,22-41.8,47.7-58.8,74.5
	c-12.7,20.2-22.9,44.7-44.2,57.3c-7.9,4.7-15.9,8.9-23.2,14.4c-10.8,8.1-19.6,18.5-30.7,26.1c-21.5,14.7-47.8,22-73.1,26.9
	c-48.6,9.3-99.3,10.9-148,2.2c-26.2-4.7-52.8-11.3-77.1-22.4c-21.7-10-40.4-24.8-46.6-49c-3.6-14-3.4-28.9-3.3-43.2
	c0-8.9,2.5-14.2,11.8-16.3c7.2-1.7,15-1,22.3,0.1c6,1,11.6,3.6,17.4,4.8c0.5,0.1,1,0.8,1.5,0.9c-0.1,0,0.5-1.2,0.2-1.2
	s-0.8,0.3-1.1,0.2c-0.9-0.4-2.9,0-3.9,0c-4.1-0.3-8.2-0.8-12.2-1.5c-16.6-2.7-32.8-7.2-48.4-13.5c-25.2-9.9-48.9-23.2-70.4-39.5
	c-42.2-32.2-80.2-69.6-121.6-102.9c-18.2-14.7-37-27.4-58-37.8c-30.4-15-63-26.3-96.8-30.9c-17.1-2.3-34.4-2.8-51.5-1.3
	c-1.9,0.2-1.9,3.2,0,3c37.9-3.2,75.7,3.5,111.2,16.5c27.7,10.1,54.4,23.4,78,41c44.4,33.1,83.7,72.4,126.9,107
	c19.4,15.8,40.7,29.2,63.3,40c15.7,7.6,32.1,13.5,49,17.8c8.1,1.9,16.2,3.4,24.5,4.3c3.3,0.4,7.4,1.3,10.7,0.5
	c2.9-0.6,3.7-2.5,1.4-4.6c-3.5-3.1-10.5-4.1-14.9-5c-11.4-2.4-30.9-5.4-39.4,5.2c-1.5,2-2.5,4.3-2.8,6.7c-1.1,7.1-0.3,14.9-0.1,22.1
	c0.4,12.9,1.5,26.1,6.6,38.1c9.2,21.9,29.2,34.6,50.3,43.5c46.6,19.6,99.3,27.5,149.6,25.8c26.5-0.9,53-3.5,78.9-9
	c25.2-5.4,51.5-13.5,72.1-29.5c10.9-8.5,19.9-18.8,31.4-26.5c7.2-4.8,15.1-8.4,22.2-13.4c8.1-5.7,14.3-13.3,19.8-21.5
	c9.2-13.8,17.1-28.5,26.2-42.4c18.9-28.9,40.6-56.1,67.2-78.3c25-20.8,53.9-36.4,84.6-47.2c61.3-21.6,129.4-26.3,193.2-13.7
	c15,3,29.8,7,44.3,12.1C1282.6,489.6,1283.4,486.7,1281.6,486.1L1281.6,486.1z"/>
<linearGradient id="SVGID_15_" gradientUnits="userSpaceOnUse" x1="21.11" y1="515.7646" x2="1271.6" y2="515.7646" gradientTransform="matrix(1 0 0 -1 0 1098)">
	<stop  offset="0" style="stop-color:#ED1C24"/>
	<stop  offset="9.000000e-02" style="stop-color:#E5242B"/>
	<stop  offset="0.23" style="stop-color:#CF3940"/>
	<stop  offset="0.4" style="stop-color:#AB5B61"/>
	<stop  offset="0.6" style="stop-color:#798A8E"/>
	<stop  offset="0.82" style="stop-color:#3AC6C8"/>
	<stop  offset="1" style="stop-color:#00FEFE"/>
</linearGradient>
<path class="st14" d="M1271.8,492.8c-52.3-17.7-108.9-21.6-163.4-14.4c-53.5,7.1-106.5,25.2-150.2,57.6
	c-23.4,17.4-43.7,38.3-61.6,61.2c-8.5,10.8-16.4,22-24,33.5c-7.5,11.2-14.1,23.1-22.9,33.3c-11.2,13.2-26.8,19-40.6,28.7
	c-11.7,8.3-21.3,19-33.5,26.6c-12.8,8-26.9,13.5-41.3,17.7c-28.1,8.3-57.4,12.1-86.5,13.9c-22.4,1.4-44.7,1.5-67-1.1
	c-24.9-2.8-49.4-7.9-73.3-15.4c-20.3-6.5-42.1-14.9-56.8-31c-8.2-9-13.3-19.8-15.8-31.6c-2.6-12.1-4.1-26-3.4-38.4
	c0.8-14.6,22.6-12.3,32.4-10.5c2.6,0.4,5.1,1,7.6,1.8c1.2,0.3,4.2,2.2,5.4,2.1s0.5-0.9-0.2-1.3s-2.5,0-3.3-0.1
	c-6.7-0.6-13.4-1.6-19.9-3.1c-30.6-6.6-59.8-20-86.6-36.1c-22.5-13.5-42.7-30.9-62.9-47.6c-23.8-19.7-47.2-39.9-71.5-58.9
	c-12-9.4-24.2-18.6-37.2-26.6c-12-7.4-24.9-13.3-37.9-18.8c-28.3-12-58.2-20.5-88.8-23.5c-15.8-1.5-31.7-1.4-47.5,0.3
	c-1.9,0.2-1.9,3.2,0,3c34.4-3.8,68.9,0.8,101.9,10.9c30.3,9.3,59.8,22.4,85.8,40.7c51.3,36.1,95.3,81.9,147.2,117.1
	c24.7,16.7,51.8,29.6,80.4,38.2c12.2,3.6,25.5,7.2,38.3,7.5c2.1,0,6.5-0.1,4.8-3.3c-1.4-2.6-7.6-3.5-10-4.1
	c-6.5-1.6-13.1-2.4-19.8-2.3c-5.5,0.1-11.7,0.9-16.2,4.4c-6.2,4.8-5,12.3-4.7,19.3c1,23.4,4,46.7,20.9,64.3
	c14.8,15.5,36.2,23.9,56.2,30.3c47.2,15.2,96.4,20,145.6,16.7c29.5-2,59.2-6.1,87.5-14.9c13.9-4.4,27.7-10,40-18s22-19,34.1-27.2
	c6.9-4.7,14.3-8.3,21.4-12.6c7.4-4.6,13.9-10.4,19.3-17.2c8.4-10.5,15.1-22.2,22.5-33.3c8.8-13.2,18.1-26,28.1-38.3
	c20.1-24.7,43.5-46.7,70.3-64c23.9-15.3,50.2-26.7,77.3-34.8c57.3-17,119.4-20.3,178.1-8.7c13.8,2.8,27.5,6.4,40.8,10.9
	C1272.8,496.3,1273.6,493.4,1271.8,492.8L1271.8,492.8z"/>
<linearGradient id="SVGID_16_" gradientUnits="userSpaceOnUse" x1="15.64" y1="510.4451" x2="1261.85" y2="510.4451" gradientTransform="matrix(1 0 0 -1 0 1098)">
	<stop  offset="0" style="stop-color:#ED1C24"/>
	<stop  offset="9.000000e-02" style="stop-color:#E5242B"/>
	<stop  offset="0.23" style="stop-color:#CF3940"/>
	<stop  offset="0.4" style="stop-color:#AB5B61"/>
	<stop  offset="0.6" style="stop-color:#798A8E"/>
	<stop  offset="0.82" style="stop-color:#3AC6C8"/>
	<stop  offset="1" style="stop-color:#00FEFE"/>
</linearGradient>
<path class="st15" d="M1262.1,499.6c-51.5-16.7-106.9-20.2-160.5-13.1c-51.4,6.9-102.2,23.7-145.3,53.1c-23.1,16-44,34.9-62.2,56.2
	c-8.5,9.8-16.4,19.9-24.1,30.3c-8,10.9-15.3,22.6-23.9,33c-5.7,7.1-12.5,13.1-20.3,17.9c-6.8,4.1-13.9,7.5-20.6,11.7
	c-10.9,6.9-20,16-30.5,23.5c-12.6,8.9-27,15-41.6,19.6c-27,8.6-55.4,12.8-83.6,15c-22.3,1.8-44.7,2.5-67,0.5
	c-24.4-2.1-48.6-6.5-72.2-13.2c-20.1-5.7-41.7-13-57.8-26.7c-19.6-16.8-24.1-40.1-26.3-64.6c-0.7-7.7-0.5-13.7,7.9-16.2
	c6-1.8,12.8-1.3,18.9-0.4c2.4,0.4,4.9,0.9,7.2,1.5c1.6,0.5,3.7,2,4.2,0.6s-3.4-1-4.7-1.1c-7.2-0.9-14.3-2.2-21.2-4
	c-29-7.2-56.5-20.4-82-35.8c-22.8-13.7-43.5-30.8-64.2-47.4c-23-18.4-45.7-37-69.4-54.4c-23.1-16.9-46.8-30.7-73.6-40.9
	c-28.9-11.1-59.3-18.7-90.3-20.5c-14.6-0.8-29.3-0.3-43.8,1.7c-1.9,0.3-1.1,3.1,0.8,2.9c34.5-4.8,69.4-0.8,102.7,8.7
	c29.6,8.4,58.2,20.3,83.8,37.4c50.4,33.6,94,76.7,144.6,110c23.9,15.7,50.4,28.8,77.7,37.4c11.8,3.7,24.7,7.4,37.2,8
	c1.9,0.1,6.2,0.1,4.5-3c-1.3-2.4-7.4-3-9.7-3.5c-6-1.3-12.2-1.7-18.4-1.2c-4.9,0.5-10.4,2-13.5,6.2c-4.8,6.5-1.6,17.2-0.8,24.3
	c2.7,22.7,9.6,43.1,28,57.8c16.3,13.1,37.4,20.3,57.2,26c47.1,13.4,95.2,16.7,143.8,12.5c28.5-2.4,57.2-6.8,84.3-16
	c14.2-4.8,28.2-11,40.3-19.9c10.5-7.7,19.8-16.8,31.1-23.6c6.9-4.2,14.2-7.5,20.9-11.9c7.9-5.2,14.5-12,20.4-19.4
	c8.2-10.5,15.4-21.8,23.4-32.5c8.8-11.8,17.9-23.2,27.8-34.2c39.2-43.7,90.1-75.4,146.6-91.4c56-16,116.4-19.2,173.6-8.3
	c13.4,2.6,26.5,5.9,39.5,10.1C1263.1,503.1,1263.9,500.2,1262.1,499.6L1262.1,499.6z"/>
<linearGradient id="SVGID_17_" gradientUnits="userSpaceOnUse" x1="10.18" y1="505.3529" x2="1252.11" y2="505.3529" gradientTransform="matrix(1 0 0 -1 0 1098)">
	<stop  offset="0" style="stop-color:#ED1C24"/>
	<stop  offset="9.000000e-02" style="stop-color:#E5242B"/>
	<stop  offset="0.23" style="stop-color:#CF3940"/>
	<stop  offset="0.4" style="stop-color:#AB5B61"/>
	<stop  offset="0.6" style="stop-color:#798A8E"/>
	<stop  offset="0.82" style="stop-color:#3AC6C8"/>
	<stop  offset="1" style="stop-color:#00FEFE"/>
</linearGradient>
<path class="st16" d="M1252.3,506.4c-50.2-15.6-103.9-18.7-155.8-12c-49.8,6.5-99.3,22.1-141.8,49.1c-23.2,14.8-44.5,32.4-63.4,52.3
	c-18.1,18.9-32.9,40.2-49.8,60c-5.9,7.3-12.9,13.6-20.8,18.7c-6.6,4.2-13.7,7.4-20.5,11.3c-10.5,6.1-19.5,14-29.2,21.1
	c-11.8,8.6-25.2,14.7-39,19.5c-26.1,9-53.7,13.5-81.1,16.1c-22.2,2.1-44.6,3.3-66.9,2c-23.8-1.5-47.5-5.1-70.7-10.9
	c-20.5-5.1-41.8-11.8-59.4-23.8c-19.5-13.4-28-33-31.9-55.7c-1.2-7.2-5.5-18.7,2.9-22.9c5-2.5,11.4-2.2,16.8-1.7
	c2.4,0.2,4.8,0.7,7.1,1.3c0.6,0.3,1.3,0.5,2,0.6c0.5-0.1,1.9-0.7,1-1.9c-0.5-0.6-6.6-0.7-7.4-0.8c-7-1.2-13.9-2.8-20.7-4.7
	c-27.8-7.9-54.3-21.1-78.9-36.2c-21.7-13.2-41.8-29.2-62-44.6c-23.4-18-46.7-36.1-71.2-52.6c-22.4-15.4-46.9-27.6-72.7-36.3
	c-27.6-9.2-56.4-15.4-85.5-16.2c-14.6-0.4-29.2,0.6-43.5,3c-1.9,0.3-1.1,3.2,0.8,2.9c32.8-5.5,66.2-2.9,98.3,4.8
	c29.3,7,58.2,17.5,83.9,33.3c50.3,30.8,93.6,71.4,142.9,103.6c23.1,15.1,48.4,28.1,74.4,37.2c12.2,4.2,24.9,7.8,37.7,9.4
	c1.5,0.2,7.4,1.2,6-2.3c-1-2.2-6.9-2.6-8.7-2.9c-5.4-1-10.9-1.1-16.3-0.2c-17.5,3.5-11,22.4-8.4,35.1c4.4,20.8,14.2,38.3,32,50.5
	s39.4,18.9,60.1,24.1c46.9,11.8,94.4,13.7,142.2,8.8c27.6-2.8,55.5-7.5,81.7-17.1c13.4-4.9,26.4-11.1,37.7-19.8
	c9.8-7.4,19-15.1,29.7-21.1c6.9-3.8,14-7.2,20.6-11.6c8-5.4,14.7-12.3,20.8-19.8c17.4-21.3,33.4-43.3,52.9-62.9
	c40.4-40.7,90.8-70,146.1-84.9c54.4-14.9,112.6-18.2,168.2-8.2c13.2,2.4,26.2,5.6,39,9.6C1253.4,509.8,1254.2,506.9,1252.3,506.4
	L1252.3,506.4z"/>
<linearGradient id="SVGID_18_" gradientUnits="userSpaceOnUse" x1="4.71" y1="500.1424" x2="1242.36" y2="500.1424" gradientTransform="matrix(1 0 0 -1 0 1098)">
	<stop  offset="0" style="stop-color:#ED1C24"/>
	<stop  offset="9.000000e-02" style="stop-color:#E5242B"/>
	<stop  offset="0.23" style="stop-color:#CF3940"/>
	<stop  offset="0.4" style="stop-color:#AB5B61"/>
	<stop  offset="0.6" style="stop-color:#798A8E"/>
	<stop  offset="0.82" style="stop-color:#3AC6C8"/>
	<stop  offset="1" style="stop-color:#00FEFE"/>
</linearGradient>
<path class="st17" d="M1242.6,513.1c-48.8-14.5-100.8-17.3-151.2-10.9c-48.4,6.1-96.4,20.7-138.5,45.4
	C908.2,573.7,872.9,609.7,840,649c-7.1,8.4-14.8,16.4-24,22.4c-6.7,4.4-14,7.8-21.1,11.6c-9.1,5.1-17.9,10.9-26.1,17.3
	c-11.5,8.9-24.5,15.5-38.1,20.5c-24.8,9.2-51.2,14-77.5,17c-22.5,2.6-45.4,4.2-68.1,3.4c-22.7-0.8-45.2-3.7-67.4-8.5
	c-20.9-4.5-42.2-10.5-60.9-20.9c-19.9-11.1-32.3-28-38.3-49.8c-1.5-5.3-2.7-10.8-3.8-16.2c-0.7-3.5-1.3-7.2,1.5-10
	c3.5-3.5,10-3.5,14.6-3.2c1.9,0.1,4,0.8,5.9,0.8c0.3,0,1.7,0.6,1.9,0.5c1.6-1,0.4-2.2-0.3-2.6c-1.9-1.2-7-1.2-9.2-1.6
	c-7.2-1.5-14.4-3.4-21.4-5.7c-26.3-8.6-51.4-21.7-74.9-36.1c-45.6-28.1-86.2-63.6-131.7-91.9c-46.1-28.7-101.2-45-155.7-44.5
	c-13.8,0.1-27.5,1.6-41,4.3c-1.9,0.4-1.1,3.3,0.8,2.9c35.9-7.2,72.8-4.4,108.3,4.2c16.9,4.1,33.9,9.1,49.9,16
	c15.2,6.6,29.4,15.2,43.3,24.2c53.6,34.4,101.4,77.4,158.5,106.3c16.4,8.3,33.5,15.6,51.3,20.5c6.5,1.9,13.1,3.4,19.8,4.4
	c1.4,0.2,3.2,0.7,4.4-0.2c0.4-0.4,0.5-0.9,0.4-1.5c-0.7-3.1-10.8-2.8-13-2.8c-6,0-13.8,1.3-16.4,7.6c-2,5,0.3,11.1,1.4,16
	c1.6,7.8,3.9,15.5,6.9,23c5.4,13,14.4,24.3,25.9,32.4c24.7,17.8,57.5,25.1,87,30.2c31.4,5.2,63.2,6.7,94.9,4.4
	c37.4-2.5,76-7.8,110.8-22.3c8.6-3.5,16.8-7.8,24.5-12.9c8-5.4,15.3-11.7,23.5-16.9c10.5-6.6,22.1-11.2,32.2-18.2
	c13.3-9.2,23-22,33.3-34.2c11.8-14.1,24.4-27.5,37.7-40.1c28.7-27,61.5-49.6,97.7-65.3c70.3-30.6,152.2-39.6,227.4-24
	c9,1.9,17.9,4.1,26.7,6.8C1243.7,516.6,1244.5,513.7,1242.6,513.1L1242.6,513.1z"/>
<linearGradient id="SVGID_19_" gradientUnits="userSpaceOnUse" x1="-0.76" y1="495.1443" x2="1232.61" y2="495.1443" gradientTransform="matrix(1 0 0 -1 0 1098)">
	<stop  offset="0" style="stop-color:#ED1C24"/>
	<stop  offset="9.000000e-02" style="stop-color:#E5242B"/>
	<stop  offset="0.23" style="stop-color:#CF3940"/>
	<stop  offset="0.4" style="stop-color:#AB5B61"/>
	<stop  offset="0.6" style="stop-color:#798A8E"/>
	<stop  offset="0.82" style="stop-color:#3AC6C8"/>
	<stop  offset="1" style="stop-color:#00FEFE"/>
</linearGradient>
<path class="st18" d="M1232.9,519.9c-66-18.6-137.5-16.5-203.4,1.3c-66.7,18-125.2,54.5-173.7,103.5c-11.5,11.6-21.8,24.6-34,35.5
	c-9.4,8.4-20.1,14-31.2,19.7c-14.2,7.2-26.3,17.2-40,25.2c-15.5,9.1-32.8,15-50.2,19.5c-33.4,8.7-68.2,12.2-102.7,13.3
	c-30.7,1-61.8-2.5-91.6-9.3c-27.7-6.3-59.2-15.6-78.1-38.2c-9.8-11.8-14.9-26.6-18.8-41.2c-1.2-4.5-1.9-9,2.8-11.5
	c2.8-1.5,6.4-1.7,9.5-1.6c1.2,0.2,2.4,0.2,3.6,0.2c1.9-0.3,0.8,1.3,0.4-0.8l1.5-1.9c-2-0.2-3.9-0.6-5.8-1.1
	c-7.7-1.7-15.4-3.8-22.9-6.3c-15.8-5.5-31.1-12.2-45.7-20.2c-26.2-13.9-50.6-30.1-74.9-47.1c-27.1-19-54.1-38.3-82.8-54.9
	c-26.8-15.5-55.9-26.6-86.3-32.7C72.4,463.7,35,462.1-1,470.5c-1.9,0.4-1.1,3.3,0.8,2.9c64.7-15.2,136.7,0.2,193.5,33.1
	c53.6,31.1,101,71.7,155.8,101c15.6,8.3,31.6,15.9,48.4,21.5c7.5,2.5,15.1,4.6,22.9,6.3c2.1,0.5,4.5,1.2,6.6,1.2
	c0.8,0,1.5-0.7,1.5-1.6c0-0.1,0-0.2,0-0.3l0,0c-0.1-0.5-0.5-0.9-1-1c-10.5-3.4-24.5,1.7-21.6,14.4c3.3,14.2,8.7,29.2,17.4,41
	c8.2,11.1,19.6,19.4,31.9,25.5c27.4,13.6,58.6,19.8,88.8,23.5c31.6,3.9,63.1,3.2,94.7,0c35.3-3.6,72-9.8,104.2-25.5
	c15.8-7.7,28.9-19.5,44.4-27.7c10.4-5.5,21.1-10.3,30.5-17.5c13.2-10.1,23.6-23.4,35-35.3c12.1-12.6,24.8-24.5,38.2-35.7
	c29.2-24.2,62-44.4,97.3-58.4c68.2-27.1,145.6-35.7,217.8-21.5c8.8,1.7,17.5,3.8,26.1,6.3c0.8,0.2,1.6-0.4,1.8-1.2
	C1234,520.9,1233.6,520.2,1232.9,519.9L1232.9,519.9z"/>
<linearGradient id="SVGID_20_" gradientUnits="userSpaceOnUse" x1="-6.23" y1="490.3195" x2="1222.86" y2="490.3195" gradientTransform="matrix(1 0 0 -1 0 1098)">
	<stop  offset="0" style="stop-color:#ED1C24"/>
	<stop  offset="9.000000e-02" style="stop-color:#E5242B"/>
	<stop  offset="0.23" style="stop-color:#CF3940"/>
	<stop  offset="0.4" style="stop-color:#AB5B61"/>
	<stop  offset="0.6" style="stop-color:#798A8E"/>
	<stop  offset="0.82" style="stop-color:#3AC6C8"/>
	<stop  offset="1" style="stop-color:#00FEFE"/>
</linearGradient>
<path class="st19" d="M1223.1,526.7c-64.6-17.3-133.9-14.9-198.4,1.9c-64.8,16.9-123,50.4-172.5,95.2
	c-11.7,10.5-22.3,22.3-34.2,32.6c-10,8.7-21.1,15-33,20.8c-12.8,6.3-24.2,13.9-36.3,21.5c-14.6,9.2-31,15.4-47.6,20.1
	c-33.2,9.5-67.8,13.5-102.2,15.2c-30.3,1.5-60.6-0.8-90.4-6.6c-30.6-6-66.2-15.3-87-40.3c-5-6.2-9.2-13-12.4-20.2
	c-1.9-4.2-3.6-8.4-5.2-12.8c-1-2.8-2.8-6.3-2.1-9.4c1.6-6.9,8.6-3.6,12.9-5.9c0.6-0.3,0.9-1,0.7-1.7c-0.4-1.2-1.9-1.3-2.9-1.7
	c-5.2-1.7-10.7-2.8-16-4.4c-16.3-5-32-12-47.2-19.9c-26.9-13.9-52.2-30.1-77.3-46.9c-27.1-18.1-54.1-36.4-82.8-51.9
	c-13.5-7.3-27.5-14.2-42.1-19.2c-15-5.1-30.8-8.5-46.3-11.1c-35.7-6-72.5-6.3-107.5,3.3c-0.8,0.3-1.2,1.1-1,1.9c0.2,0.7,1,1.2,1.7,1
	c27-7.3,55.1-8.8,82.9-6.3c26.5,2.4,54,7.6,78.8,17.6c49.7,20,93.1,53.5,137.7,82.5c21,13.8,42.8,26.3,65.4,37.2
	c11.6,5.6,23.5,10.4,35.8,14.4c4.9,1.5,9.9,2.8,14.8,4.1c0.8,0.2,2,0.8,2.8,0.7s4.3,0,1.1-2.4c-1.6-1.2-8,1.1-9.5,1.8
	c-3.5,1.7-5.6,5.5-5.1,9.3c0.7,8.4,6.1,18.1,9.9,25.6c4.1,8.3,9.6,15.8,16.1,22.2c13.6,13.1,31.5,21,49.3,26.7
	c21.3,6.8,43.4,10.9,65.6,13.3c44.3,4.9,89.8,1.8,133.5-6.7c23.7-4.6,47.9-11,69.2-22.6c10.7-5.8,20.2-13.5,30.9-19.4
	c7.5-4.2,15.3-7.6,22.9-11.6c18.5-9.8,32.2-24.7,47.2-39c17.8-17,36.8-32.7,57-46.8c82.3-57,187-82.5,286.3-67.1
	c11.9,1.9,23.8,4.3,35.4,7.5c0.8,0.2,1.6-0.3,1.8-1.1C1224.3,527.6,1223.9,526.9,1223.1,526.7L1223.1,526.7z"/>
<linearGradient id="SVGID_21_" gradientUnits="userSpaceOnUse" x1="-11.7" y1="485.8205" x2="1213.11" y2="485.8205" gradientTransform="matrix(1 0 0 -1 0 1098)">
	<stop  offset="0" style="stop-color:#ED1C24"/>
	<stop  offset="9.000000e-02" style="stop-color:#E5242B"/>
	<stop  offset="0.23" style="stop-color:#CF3940"/>
	<stop  offset="0.4" style="stop-color:#AB5B61"/>
	<stop  offset="0.6" style="stop-color:#798A8E"/>
	<stop  offset="0.82" style="stop-color:#3AC6C8"/>
	<stop  offset="1" style="stop-color:#00FEFE"/>
</linearGradient>
<path class="st20" d="M1213.4,533.4c-89.9-22.7-190-8.9-272.9,31.5c-41.8,20.4-80.1,47.3-114.8,78.2c-8.6,7.7-17.1,15.2-26.9,21.4
	c-7.7,4.8-15.9,8.7-24.1,12.6c-19.7,9.4-37.1,23-57.7,30.8c-43.3,16.5-91.8,22.5-138,23.2c-42,0.7-87.1-4.4-126.1-20.9
	c-18.9-8-35.1-20-46-37.6c-2.7-4.5-5.2-9.1-7.5-13.8c-1.6-3.3-5-8.5-3.5-12.5c1.3-3.5,5.1-2.4,6.8-4.7s-1.4-3.4-3.2-4
	c-11-3.9-22.2-7-33-11.7c-23.2-10-45.4-22.8-67-35.9c-42.9-26.1-83.9-55.8-129.9-76.5c-45-20.2-97.9-27.5-146.8-20.9
	c-11.8,1.6-23.4,4.2-34.8,7.7c-1.8,0.6-1.1,3.5,0.8,2.9c25.3-7.9,51.8-10.6,78.3-9.5c25.7,1.1,52.3,4.8,76.7,12.9
	c49.1,16.2,92.7,47.2,135.9,74.7c20.5,13,41.3,25.5,62.9,36.7c10.7,5.6,21.8,10.6,33,15c5.7,2.2,11.5,4,17.3,5.8
	c1.8,0.5,3.5,1,5.3,1.6c1.2,0.4,2.4,1.4,2.4,0c0-2.1-5.7,1.8-6.7,3.2c-3,4.2-0.7,9.4,1.2,13.5c8,17.5,18.6,33.3,34.7,44.4
	s34.9,17.4,53.5,22.1c20.6,5.1,41.6,8.3,62.7,9.8c44,3.2,89.5-1,132.5-10.7c21.7-4.9,43.5-11.5,62.8-22.8c9.4-5.5,18.2-11.7,28-16.6
	c7.8-3.9,15.8-7.3,23.4-11.5c18.2-9.9,32.7-24.6,48.5-37.9c17.9-15.1,36.8-29,56.6-41.5c82.6-51.9,183.5-76.7,280.6-62.6
	c11.5,1.7,22.9,3.9,34.1,6.8C1214.5,536.9,1215.2,534,1213.4,533.4L1213.4,533.4z"/>
<linearGradient id="SVGID_22_" gradientUnits="userSpaceOnUse" x1="-17.17" y1="481.6086" x2="1203.36" y2="481.6086" gradientTransform="matrix(1 0 0 -1 0 1098)">
	<stop  offset="0" style="stop-color:#ED1C24"/>
	<stop  offset="9.000000e-02" style="stop-color:#E5242B"/>
	<stop  offset="0.23" style="stop-color:#CF3940"/>
	<stop  offset="0.4" style="stop-color:#AB5B61"/>
	<stop  offset="0.6" style="stop-color:#798A8E"/>
	<stop  offset="0.82" style="stop-color:#3AC6C8"/>
	<stop  offset="1" style="stop-color:#00FEFE"/>
</linearGradient>
<path class="st21" d="M1203.6,540.2c-88.5-21-185.3-6.8-267.5,30.7c-40.7,18.6-78.7,42.5-113.9,70.1c-8.9,7-17.6,14.2-27.2,20.2
	c-7.9,4.8-16.1,9-24.5,12.7c-8.5,3.9-16.9,7.8-25,12.6c-9.9,5.8-19.5,11.6-30.2,15.9c-42.2,17.1-89.4,22.9-134.6,25
	c-41.7,1.9-85.6-2.4-125-16.5c-19.2-6.8-37-17-50.2-32.8c-3.2-3.9-6.3-8.1-9-12.4c-2.6-4-6-8.5-7.3-13.2c-0.7-2-0.5-4.2,0.5-6.1
	c0.5-0.9,1.5-1.6,1.5-2.8c0-3.2-5.6-4.4-7.9-5.2c-11.8-4.3-23.4-8.6-34.6-14.1c-21.7-10.4-42.5-22.8-63-35.3
	c-41-24.9-81.3-51.7-126.1-69.3C115.4,502.4,64,497.9,17.3,506c-11.8,2-23.4,5.1-34.7,9.1c-1.8,0.6-1,3.5,0.8,2.9
	c46.4-16.6,100.6-16.5,148.2-4.3c48,12.3,91.4,40.2,133.2,66c19.6,12.1,39.4,24.1,59.6,35.3c11.1,6.2,22.4,12,34.1,17
	c4.9,2.1,9.9,4.2,14.9,6c4.4,1.6,9.4,2.7,13.5,4.9c1.9,1.1,1.2,0,0.4,1.7c-0.7,1.2-1.2,2.6-1.5,4c-0.8,6.8,5.2,14,8.6,19.2
	c10.2,15.7,23.5,28.4,40.2,37.1c35.3,18.4,78,24,117.3,25.4c44,1.5,88.1-3.4,130.8-14.4c20-5.2,39.6-12,57.3-22.8
	c15.8-9.6,32.8-16.3,48.9-25.1c18.4-10.1,33.9-24.3,50.7-36.7c17.8-13.2,36.4-25.3,55.7-36.2c81.9-46.5,178-70.7,272.2-58.6
	c11.9,1.5,23.6,3.7,35.3,6.5C1204.7,543.5,1205.5,540.6,1203.6,540.2L1203.6,540.2z"/>
<linearGradient id="SVGID_23_" gradientUnits="userSpaceOnUse" x1="-23.8416" y1="477.679" x2="1192.4084" y2="477.679" gradientTransform="matrix(1 0 0 -1 0 1098)">
	<stop  offset="0" style="stop-color:#ED1C24"/>
	<stop  offset="9.000000e-02" style="stop-color:#E5242B"/>
	<stop  offset="0.23" style="stop-color:#CF3940"/>
	<stop  offset="0.4" style="stop-color:#AB5B61"/>
	<stop  offset="0.6" style="stop-color:#798A8E"/>
	<stop  offset="0.82" style="stop-color:#3AC6C8"/>
	<stop  offset="1" style="stop-color:#00FEFE"/>
</linearGradient>
<path class="st22" d="M1193.9,546.9c-87-19.2-180.7-4.8-262,30c-40.7,17.6-79.6,39.2-116,64.6c-16.5,11.5-32.9,21.8-51.4,30
	c-7.8,3.5-15.7,6.9-23.3,10.9c-9.9,5.2-19.3,11-29.7,15.3c-41,17.1-87,23.1-131,25.8c-41.8,2.6-85.5-0.7-125.5-13.5
	c-19.7-6.3-38.4-15.6-53.2-30.3c-7-6.9-14.3-14.9-18.9-23.6c-1.7-3.2-1.4-7-3.1-10c-2.2-3.9-8.5-5.5-12.4-7
	c-11.6-4.6-23-9.8-34.1-15.5c-21-11-41.3-23.3-61.6-35.5c-40.3-24.1-81.1-48.8-126.1-63.1c-43-13.6-92.2-15-136.2-5.1
	c-11,2.5-21.8,5.9-32.2,10.1c-1.8,0.7-1,3.6,0.8,2.9c43.9-17.8,94.7-20.1,141-11.6c47.7,8.8,91.6,33.9,132.8,58.4
	c19.5,11.5,38.8,23.3,58.4,34.6c10.4,6,20.9,11.8,31.6,17c9.9,4.8,20.3,8.4,30.2,13c4.7,2.2,5,3.3,6,7.9c1.5,6.4,6.3,11.8,10.2,16.8
	c11.9,15.4,27.4,27.7,45,35.9c36.1,16.6,77.9,21.7,117.3,22.4c43.9,0.7,87.7-4.7,130.1-16.1c19.3-5.2,37.6-12.2,55-22.2
	c15.5-8.9,32.4-15,48.2-23.3c17.8-9.4,33.6-21.9,50.3-32.9c18.1-11.8,36.7-22.7,55.9-32.6c82-42.7,175.3-66.9,268.2-56.1
	c11.7,1.4,23.3,3.3,34.8,5.9C1195,550.3,1195.8,547.4,1193.9,546.9L1193.9,546.9z"/>
<linearGradient id="SVGID_24_" gradientUnits="userSpaceOnUse" x1="-28.12" y1="474.0685" x2="1183.85" y2="474.0685" gradientTransform="matrix(1 0 0 -1 0 1098)">
	<stop  offset="0" style="stop-color:#ED1C24"/>
	<stop  offset="9.000000e-02" style="stop-color:#E5242B"/>
	<stop  offset="0.23" style="stop-color:#CF3940"/>
	<stop  offset="0.4" style="stop-color:#AB5B61"/>
	<stop  offset="0.6" style="stop-color:#798A8E"/>
	<stop  offset="0.82" style="stop-color:#3AC6C8"/>
	<stop  offset="1" style="stop-color:#00FEFE"/>
</linearGradient>
<path class="st23" d="M1184.2,553.7c-87-17.8-179.4-2.4-260.8,31c-39,16-76.7,35-112.8,56.8c-17.2,10.4-34.2,20.1-52.7,28
	c-7.6,3.3-15.2,6.4-22.7,10c-9.6,4.6-18.8,10-28.7,14.1c-39.9,16.6-84.8,23-127.6,26.1c-42,3.1-85.5,0.7-126.1-11.2
	c-20.3-5.9-39.6-14.7-55.9-28.3c-7.5-6.1-14.3-13-20.5-20.5c-3-3.8-5.2-8.3-8.9-11.5c-5.5-4.8-13.2-7.3-19.8-10.3
	c-10.9-5-21.5-10.6-31.9-16.5c-19.6-11.1-38.8-22.9-58.3-34.3c-39.5-23.1-80.5-45.3-125.2-56.2c-42.3-10.2-89.5-9-131.3,3
	c-10.2,2.9-20.1,6.6-29.7,11c-1.8,0.8-0.2,3.4,1.5,2.6c41.8-19.2,90.3-23.6,135.6-18c47,5.8,90.9,27.9,131.6,50.9
	c19.1,10.8,37.9,22.2,56.8,33.4c10,5.9,20,11.7,30.3,17.2s20.7,9.8,30.9,14.8c4.7,2.1,8.8,5.5,11.7,9.8c4.4,6.3,9.3,12.1,14.8,17.4
	c13.3,13.3,29,23.8,46.4,31c37.6,15.6,80.1,20.1,120.5,19.8c43.7-0.3,88.5-6.4,130.4-18.6c17.2-5,33-11.9,48.8-20.2
	c15.5-8.1,32-13.9,47.6-21.7c17.6-8.7,33.9-19.8,51-29.5c18-10.3,36.4-19.8,55.2-28.7c82.3-39,173-63.4,264.6-53.9
	c11.5,1.2,22.9,3,34.2,5.3C1185.2,557,1186,554.1,1184.2,553.7L1184.2,553.7z"/>
<linearGradient id="SVGID_25_" gradientUnits="userSpaceOnUse" x1="-33.59" y1="470.6607" x2="1174.1" y2="470.6607" gradientTransform="matrix(1 0 0 -1 0 1098)">
	<stop  offset="0" style="stop-color:#ED1C24"/>
	<stop  offset="9.000000e-02" style="stop-color:#E5242B"/>
	<stop  offset="0.23" style="stop-color:#CF3940"/>
	<stop  offset="0.4" style="stop-color:#AB5B61"/>
	<stop  offset="0.6" style="stop-color:#798A8E"/>
	<stop  offset="0.82" style="stop-color:#3AC6C8"/>
	<stop  offset="1" style="stop-color:#00FEFE"/>
</linearGradient>
<path class="st24" d="M1174.4,560.5c-85.8-16.1-175.6-0.5-256.2,30.6c-38.7,14.9-76.6,31.9-113.5,50.9c-17.7,9.1-35.3,18-53.7,25.6
	c-16.3,6.7-32.1,14.6-48.4,21.4c-38.1,16-80.9,22.8-121.8,26.5c-42.7,3.9-86.5,2.6-128.2-8.1c-20.2-5.2-39.7-12.8-57.2-24.3
	c-8.8-5.9-17.1-12.4-24.9-19.5c-4.8-4.3-9.4-9-14.7-12.8c-7.7-5.5-16.5-9.3-24.8-13.6c-10.3-5.4-20.4-11.2-30.4-17.2
	c-18.9-11.2-37.6-22.8-56.7-33.6c-38.6-21.8-79.6-41.3-123.7-48.8c-41.9-7.2-87.6-3.5-127.8,10.6c-9.1,3.2-18,7-26.5,11.5
	c-1.7,0.9-0.2,3.5,1.5,2.6c39.1-20.3,84.4-26.9,128-24.5c46.5,2.6,90.8,20.9,131.4,42.6c39.1,20.9,76,45.5,115.4,65.8
	c14.6,7.5,25.1,19.4,37.9,29.5c15.1,12,32,21.4,50.1,28c38.5,14,80.9,17.8,121.6,16.6c43.5-1.3,87.7-8,129.4-20.5
	c15.5-4.7,29.8-11.4,44.4-18.2c15.6-7.3,31.8-13.1,47.5-20.3c17.3-8,34-17.4,51-25.8c18.2-9,36.6-17.5,55.2-25.4
	c82.3-35.2,170.3-59.6,260.6-51.4c11.3,1,22.6,2.6,33.7,4.7C1175.4,563.7,1176.2,560.8,1174.4,560.5L1174.4,560.5z"/>
<linearGradient id="SVGID_26_" gradientUnits="userSpaceOnUse" x1="-39.07" y1="467.5905" x2="1164.35" y2="467.5905" gradientTransform="matrix(1 0 0 -1 0 1098)">
	<stop  offset="0" style="stop-color:#ED1C24"/>
	<stop  offset="9.000000e-02" style="stop-color:#E5242B"/>
	<stop  offset="0.23" style="stop-color:#CF3940"/>
	<stop  offset="0.4" style="stop-color:#AB5B61"/>
	<stop  offset="0.6" style="stop-color:#798A8E"/>
	<stop  offset="0.82" style="stop-color:#3AC6C8"/>
	<stop  offset="1" style="stop-color:#00FEFE"/>
</linearGradient>
<path class="st25" d="M1164.7,567.2c-85.3-14.5-173.1,2-253.7,30.9c-72.7,26.2-142.9,58.2-214.5,87.2c-36.8,14.9-77.4,22-116.7,26.2
	c-43.3,4.6-87.7,4-130.3-5.9c-21.2-4.8-41.7-12.5-60.8-23c-16.7-9.2-31.7-21-47.8-31c-19-11.8-38.6-22.6-57.6-34.3
	c-18.4-11.4-36.8-22.7-55.9-32.8c-37-19.7-76.6-35.1-118.6-39.5c-41.1-4.3-84.7,1.3-123,17.1c-8.7,3.6-17.2,7.8-25.3,12.5
	c-0.7,0.4-1,1.4-0.5,2.1s1.4,1,2.1,0.5l0,0c36.5-21.3,79.4-30.4,121.4-30.5c44.7-0.1,87.9,13.3,127.7,32.9
	c39.3,19.3,75.2,44.6,113.4,66c16.6,9.3,31.8,20.5,47.8,30.8c16.7,10.8,34.6,19.5,53.5,25.8c39.5,13,82.1,16.5,123.5,14.7
	c43.8-1.8,87.2-9.2,129.2-21.8c14.2-4.3,27.6-10.7,41.3-16.4c15.8-6.7,32-12.6,47.8-19.2c35.2-14.7,70-30.4,105.6-44.1
	c81.9-31.4,167.5-56,256.2-49.4c11.5,0.8,23,2.2,34.3,4.2C1165.8,570.5,1166.6,567.6,1164.7,567.2L1164.7,567.2z"/>
<linearGradient id="SVGID_27_" gradientUnits="userSpaceOnUse" x1="-45.6882" y1="464.8733" x2="1153.4518" y2="464.8733" gradientTransform="matrix(1 0 0 -1 0 1098)">
	<stop  offset="0" style="stop-color:#ED1C24"/>
	<stop  offset="9.000000e-02" style="stop-color:#E5242B"/>
	<stop  offset="0.23" style="stop-color:#CF3940"/>
	<stop  offset="0.4" style="stop-color:#AB5B61"/>
	<stop  offset="0.6" style="stop-color:#798A8E"/>
	<stop  offset="0.82" style="stop-color:#3AC6C8"/>
	<stop  offset="1" style="stop-color:#00FEFE"/>
</linearGradient>
<path class="st26" d="M1154.9,574c-50.3-7.7-101.4-4.7-151.2,4.7c-51,9.5-99.9,26.2-148.8,43c-56.4,19.4-112.3,40.1-168,61.2
	c-22.7,8.6-46.3,14-70.2,18.5c-50.5,9.6-102.8,13.2-153.8,5.3c-44.9-6.9-86.1-24.2-125.1-47.1c-35.7-20.9-69.2-45.2-105.3-65.5
	c-36.5-20.5-75.8-36-117.7-40.6c-44.7-4.8-91.4,1.9-132.4,20.5c-9.6,4.3-18.8,9.4-27.5,15.2c-1.6,1.1-0.1,3.7,1.5,2.6
	C-5,566.6,42,555.2,87.8,555.2c44.9,0.1,87.9,12.9,127.7,33.3c36.3,18.6,69.6,42.2,104.2,63.7c36.1,22.4,74,42.1,115.6,52.2
	c47.5,11.5,97.2,11.8,145.5,5.8c24.4-3.1,48.6-7.7,72.5-13.7c8.8-2,17.5-4.5,26-7.5c46.6-17,92.7-35.1,139.5-51.6
	c95.5-33.6,193.1-69.2,296-64.5c13.2,0.6,26.3,1.9,39.4,3.9C1156,577.2,1156.8,574.3,1154.9,574z"/>
<path class="st27" d="M522.1,281.4v-96.7h13.3l17.8,51.2h0.3l17.7-51.2h13.5v96.7h-13.9v-58.8h-0.3l-13.7,41.6h-6.9l-13.6-41.6H536
	v58.8H522.1z"/>
<path class="st27" d="M596.8,207.5c-0.1-3.5,0.6-7.1,2-10.3c1.2-2.9,3.1-5.4,5.4-7.5c2.2-1.9,4.7-3.4,7.4-4.4c5.4-2,11.3-2,16.7,0
	c2.7,1,5.3,2.5,7.5,4.4c2.3,2.1,4.1,4.6,5.3,7.5c1.4,3.3,2.1,6.8,2,10.3v51.1c0.1,3.6-0.6,7.2-2,10.5c-1.2,2.7-3,5.2-5.3,7.2
	c-2.2,2-4.8,3.5-7.5,4.5c-5.4,2-11.3,2-16.7,0c-2.7-1-5.3-2.5-7.4-4.5c-2.3-2-4.2-4.4-5.4-7.2c-1.4-3.3-2.1-6.9-2-10.5V207.5z
	 M610.7,258.6c0,3.3,0.9,5.8,2.8,7.4c3.8,3.2,9.4,3.2,13.2,0c1.8-1.6,2.8-4,2.8-7.4v-51.1c0-3.3-0.9-5.8-2.8-7.4
	c-3.8-3.2-9.4-3.2-13.2,0c-1.9,1.6-2.8,4-2.8,7.4V258.6z"/>
<path class="st27" d="M700,184.7l-19.8,96.7H668l-19.7-96.7H663l11,67.5h0.3l11.1-67.5H700z"/>
<path class="st27" d="M708.7,281.4v-96.7h13.8v96.7H708.7z"/>
<path class="st28" d="M773.9,184.6v96.7h-41.3v-13h27.4v-28.4h-23.9v-13h23.9v-28.4h-27.4v-13.9H773.9z"/>
<path class="st28" d="M514.9,281.4v-96.7h13.3l17.8,51.2h0.3l17.7-51.2h13.5v96.7h-13.8v-58.8h-0.3l-13.7,41.6h-6.9L529,222.6h-0.3
	v58.8H514.9z"/>
<path class="st28" d="M589.6,207.5c-0.1-3.5,0.6-7.1,2-10.3c1.2-2.9,3.1-5.4,5.4-7.5c2.2-1.9,4.7-3.4,7.4-4.4c5.4-2,11.3-2,16.7,0
	c2.7,1,5.3,2.5,7.5,4.4c2.3,2.1,4.1,4.6,5.3,7.5c1.4,3.3,2.1,6.8,2,10.3v51.1c0.1,3.6-0.6,7.1-2,10.4c-1.2,2.7-3,5.2-5.3,7.2
	c-2.2,2-4.8,3.5-7.5,4.5c-5.4,2-11.3,2-16.7,0c-2.7-1-5.3-2.5-7.4-4.5c-2.3-2-4.2-4.4-5.4-7.2c-1.4-3.3-2.1-6.9-2-10.5L589.6,207.5z
	 M603.5,258.6c0,3.3,0.9,5.8,2.8,7.4c3.8,3.2,9.4,3.2,13.2,0c1.8-1.6,2.8-4,2.8-7.4v-51.1c0-3.3-0.9-5.8-2.8-7.4
	c-3.8-3.2-9.4-3.2-13.2,0c-1.9,1.6-2.8,4-2.8,7.4V258.6z"/>
<path class="st28" d="M692.8,184.7L673,281.4h-12.2l-19.7-96.7h14.7l11,67.5h0.3l11.1-67.5H692.8z"/>
<path class="st28" d="M701.5,281.4v-96.7h13.8v96.7H701.5z"/>
<path class="st27" d="M781.1,184.6v96.7h-41.3v-13h27.4v-28.4h-23.9v-13h23.9v-28.4h-27.4v-13.9H781.1z"/>
<path class="st29" d="M518.5,281.4v-96.7h13.3l17.8,51.2h0.3l17.7-51.2H581v96.7h-13.9v-58.8h-0.3l-13.7,41.6h-6.9l-13.6-41.6h-0.3
	v58.8H518.5z"/>
<path class="st29" d="M593.2,207.5c-0.1-3.5,0.6-7.1,2-10.3c1.3-2.9,3.1-5.4,5.4-7.5c2.2-1.9,4.7-3.4,7.4-4.4c5.4-2,11.3-2,16.7,0
	c2.7,1,5.3,2.5,7.5,4.4c2.3,2.1,4.1,4.6,5.3,7.5c1.4,3.3,2.1,6.8,2,10.3v51.1c0.1,3.6-0.6,7.2-2,10.5c-1.2,2.7-3,5.2-5.3,7.2
	c-2.2,2-4.8,3.5-7.5,4.5c-5.4,2-11.3,2-16.7,0c-2.7-1-5.3-2.5-7.4-4.5c-2.3-2-4.2-4.4-5.4-7.2c-1.4-3.3-2.1-6.9-2-10.5V207.5z
	 M607,258.6c0,3.3,0.9,5.8,2.8,7.4c3.8,3.2,9.4,3.2,13.2,0c1.9-1.6,2.8-4,2.8-7.4v-51.1c0-3.3-0.9-5.8-2.8-7.4
	c-3.8-3.2-9.4-3.2-13.2,0c-1.8,1.6-2.8,4-2.8,7.4L607,258.6z"/>
<path class="st29" d="M696.4,184.7l-19.8,96.7h-12.2l-19.7-96.7h14.7l11,67.5h0.3l11.1-67.5H696.4z"/>
<path class="st29" d="M705.1,281.4v-96.7h13.9v96.7H705.1z"/>
<path class="st29" d="M777.6,184.6v96.7h-41.3v-13h27.4v-28.4h-23.9v-13h23.9v-28.4h-27.4v-13.9H777.6z"/>
<polyline class="st30" points="449.6,331.7 467.7,339.7 485.8,331.7 503.9,339.7 522,331.7 540.2,339.7 "/>
<polyline class="st30" points="449.6,312.4 467.7,320.4 485.8,312.4 503.9,320.4 522,312.4 540.2,320.4 "/>
<polyline class="st30" points="723.8,149.5 741.9,157.5 760,149.5 778.2,157.5 796.3,149.5 814.4,157.5 "/>
<polyline class="st30" points="723.8,130.1 741.9,138.1 760,130.1 778.2,138.1 796.3,130.1 814.4,138.1 "/>
<rect x="558.9" y="300.7" class="st27" width="210.2" height="43.5"/>
<path class="st27" d="M1050.7,407.1c0,1.8-1.5,3.3-3.3,3.3s-3.3-1.5-3.3-3.3c0-1.8,1.5-3.3,3.3-3.3
	C1049.2,403.8,1050.7,405.3,1050.7,407.1C1050.7,407.1,1050.7,407.1,1050.7,407.1z"/>
<path class="st27" d="M1072.7,407.1c0,1.8-1.5,3.3-3.3,3.3s-3.3-1.5-3.3-3.3c0-1.8,1.5-3.3,3.3-3.3
	C1071.2,403.8,1072.7,405.3,1072.7,407.1C1072.7,407.1,1072.7,407.1,1072.7,407.1z"/>
<path class="st27" d="M1094.8,407.1c0,1.8-1.5,3.3-3.3,3.3s-3.3-1.5-3.3-3.3c0-1.8,1.5-3.3,3.3-3.3
	C1093.3,403.8,1094.8,405.3,1094.8,407.1C1094.8,407.1,1094.8,407.1,1094.8,407.1z"/>
<path class="st27" d="M1050.7,423.9c-0.1,1.8-1.6,3.3-3.4,3.2c-1.8-0.1-3.3-1.6-3.2-3.4c0.1-1.8,1.6-3.3,3.4-3.2
	C1049.3,420.5,1050.7,422.1,1050.7,423.9z"/>
<path class="st27" d="M1072.7,424.7c-0.1,1.8-1.6,3.3-3.4,3.2c-1.8-0.1-3.3-1.6-3.2-3.4c0.1-1.8,1.6-3.3,3.4-3.2
	C1071.3,421.3,1072.8,422.8,1072.7,424.7C1072.7,424.7,1072.7,424.7,1072.7,424.7z"/>
<path class="st27" d="M1094.8,425.5c-0.1,1.8-1.6,3.3-3.4,3.2c-1.8-0.1-3.3-1.6-3.2-3.4c0.1-1.8,1.6-3.3,3.4-3.2
	C1093.4,422.1,1094.8,423.6,1094.8,425.5C1094.8,425.5,1094.8,425.5,1094.8,425.5z"/>
<path class="st27" d="M1050.7,369.3c0,1.8-1.5,3.3-3.3,3.3s-3.3-1.5-3.3-3.3s1.5-3.3,3.3-3.3l0,0
	C1049.2,366,1050.7,367.5,1050.7,369.3z"/>
<path class="st27" d="M1072.7,369.3c0,1.8-1.5,3.3-3.3,3.3s-3.3-1.5-3.3-3.3s1.5-3.3,3.3-3.3l0,0
	C1071.2,366,1072.7,367.5,1072.7,369.3z"/>
<path class="st27" d="M1094.8,369.3c0,1.8-1.5,3.3-3.3,3.3s-3.3-1.5-3.3-3.3s1.5-3.3,3.3-3.3l0,0
	C1093.3,366,1094.8,367.5,1094.8,369.3z"/>
<path class="st27" d="M1050.7,386.1c-0.1,1.8-1.6,3.3-3.4,3.2c-1.8-0.1-3.3-1.6-3.2-3.4c0.1-1.8,1.6-3.3,3.4-3.2c0,0,0,0,0,0
	C1049.3,382.7,1050.7,384.3,1050.7,386.1z"/>
<path class="st27" d="M1072.7,386.9c-0.1,1.8-1.6,3.3-3.4,3.2c-1.8-0.1-3.3-1.6-3.2-3.4c0.1-1.8,1.6-3.3,3.4-3.2c0,0,0,0,0,0
	C1071.3,383.5,1072.8,385.1,1072.7,386.9z"/>
<path class="st27" d="M1094.8,387.7c-0.1,1.8-1.6,3.3-3.4,3.2c-1.8-0.1-3.3-1.6-3.2-3.4c0.1-1.8,1.6-3.3,3.4-3.2
	C1093.4,384.3,1094.8,385.9,1094.8,387.7z"/>
<path class="st27" d="M1115,407.1c0,1.8-1.5,3.3-3.3,3.3s-3.3-1.5-3.3-3.3c0-1.8,1.5-3.3,3.3-3.3
	C1113.5,403.8,1115,405.3,1115,407.1C1115,407.1,1115,407.1,1115,407.1z"/>
<path class="st27" d="M1137.1,407.1c0,1.8-1.5,3.3-3.3,3.3s-3.3-1.5-3.3-3.3c0-1.8,1.5-3.3,3.3-3.3
	C1135.6,403.8,1137.1,405.3,1137.1,407.1C1137.1,407.1,1137.1,407.1,1137.1,407.1z"/>
<path class="st27" d="M1159.1,407.1c0,1.8-1.5,3.3-3.3,3.3s-3.3-1.5-3.3-3.3c0-1.8,1.5-3.3,3.3-3.3
	C1157.6,403.8,1159.1,405.3,1159.1,407.1C1159.1,407.1,1159.1,407.1,1159.1,407.1z"/>
<path class="st27" d="M1115,423.9c-0.1,1.8-1.6,3.3-3.4,3.2c-1.8-0.1-3.3-1.6-3.2-3.4c0.1-1.8,1.6-3.3,3.4-3.2
	C1113.6,420.5,1115.1,422.1,1115,423.9C1115,423.9,1115,423.9,1115,423.9z"/>
<path class="st27" d="M1137.1,424.7c-0.1,1.8-1.6,3.3-3.4,3.2c-1.8-0.1-3.3-1.6-3.2-3.4c0.1-1.8,1.6-3.3,3.4-3.2
	C1135.7,421.3,1137.1,422.8,1137.1,424.7C1137.1,424.7,1137.1,424.7,1137.1,424.7z"/>
<path class="st27" d="M1159.1,425.5c-0.1,1.8-1.6,3.3-3.4,3.2c-1.8-0.1-3.3-1.6-3.2-3.4c0.1-1.8,1.6-3.3,3.4-3.2
	C1157.7,422.1,1159.2,423.6,1159.1,425.5C1159.1,425.5,1159.1,425.5,1159.1,425.5z"/>
<path class="st27" d="M1115,369.3c0,1.8-1.5,3.3-3.3,3.3s-3.3-1.5-3.3-3.3s1.5-3.3,3.3-3.3l0,0C1113.5,366,1115,367.5,1115,369.3z"
	/>
<path class="st27" d="M1137.1,369.3c0,1.8-1.5,3.3-3.3,3.3s-3.3-1.5-3.3-3.3s1.5-3.3,3.3-3.3l0,0
	C1135.6,366,1137.1,367.5,1137.1,369.3z"/>
<path class="st27" d="M1159.1,369.3c0,1.8-1.5,3.3-3.3,3.3s-3.3-1.5-3.3-3.3s1.5-3.3,3.3-3.3l0,0
	C1157.6,366,1159.1,367.5,1159.1,369.3z"/>
<path class="st27" d="M1115,386.1c-0.1,1.8-1.6,3.3-3.4,3.2c-1.8-0.1-3.3-1.6-3.2-3.4c0.1-1.8,1.6-3.3,3.4-3.2c0,0,0,0,0,0
	C1113.6,382.7,1115.1,384.3,1115,386.1C1115,386.1,1115,386.1,1115,386.1z"/>
<path class="st27" d="M1137.1,386.9c-0.1,1.8-1.6,3.3-3.4,3.2c-1.8-0.1-3.3-1.6-3.2-3.4c0.1-1.8,1.6-3.3,3.4-3.2c0,0,0,0,0,0
	C1135.7,383.5,1137.1,385.1,1137.1,386.9z"/>
<path class="st27" d="M1159.1,387.7c-0.1,1.8-1.6,3.3-3.4,3.2c-1.8-0.1-3.3-1.6-3.2-3.4c0.1-1.8,1.6-3.3,3.4-3.2
	C1157.7,384.3,1159.2,385.9,1159.1,387.7z"/>
<g class="st31">
	<path class="st29" d="M566.1,319.7v-2.5h11.2v2.5h-4v10.9h-3.2v-10.9H566.1z"/>
	<path class="st29" d="M582.6,317.2h3l5,13.4h-3.5l-0.8-2.5h-4.4l-0.8,2.5h-3.5L582.6,317.2z M585.5,325.6l-1.4-4.7l-1.4,4.7H585.5z
		"/>
	<path class="st29" d="M591.5,330.6v-13.4h3.2v5.9l1.1-1.7l2.9-4.2h4l-4.5,5.9l4.5,7.5H599l-2.9-5l-1.3,1.5v3.5H591.5z"/>
	<path class="st29" d="M612.9,317.2v2.5h-6v2.8h5.1v2.4h-5.1v3.2h6v2.5h-9.2v-13.4H612.9z"/>
	<path class="st29" d="M622.7,317.2h3l5,13.4h-3.5l-0.8-2.5H622l-0.8,2.5h-3.5L622.7,317.2z M625.6,325.6l-1.4-4.7l-1.4,4.7H625.6z"
		/>
	<path class="st29" d="M636.3,330.6v-13.4h4.3c1.2,0,2.3,0.3,3.2,0.8c0.9,0.5,1.7,1.3,2.2,2.3c0.5,1,0.8,2.1,0.8,3.3v0.6
		c0,1.2-0.3,2.3-0.8,3.3c-0.5,1-1.3,1.7-2.2,2.3c-0.9,0.5-2,0.8-3.2,0.8H636.3z M639.5,319.7v8.4h1.1c0.9,0,1.6-0.3,2.1-1
		c0.5-0.7,0.7-1.6,0.7-2.9v-0.6c0-1.3-0.2-2.3-0.7-2.9c-0.5-0.7-1.2-1-2.2-1H639.5z"/>
	<path class="st29" d="M657.7,317.2v2.5h-6v2.8h5.1v2.4h-5.1v3.2h6v2.5h-9.2v-13.4H657.7z"/>
	<path class="st29" d="M668.3,317.2v2.5h-6v2.8h5.1v2.4h-5.1v3.2h6v2.5H659v-13.4H668.3z"/>
	<path class="st29" d="M669.6,330.6v-13.4h5.4c1,0,1.9,0.2,2.7,0.6c0.8,0.4,1.4,0.9,1.8,1.6s0.7,1.5,0.7,2.4c0,1.3-0.5,2.4-1.4,3.1
		s-2.2,1.2-3.9,1.2h-2.1v4.6H669.6z M672.8,323.6h2.1c0.6,0,1.1-0.2,1.4-0.5c0.3-0.3,0.5-0.8,0.5-1.3c0-0.6-0.2-1.1-0.5-1.5
		s-0.8-0.6-1.4-0.6h-2.2V323.6z"/>
	<path class="st29" d="M691.3,317.2c1.7,0,3,0.3,3.9,1s1.3,1.6,1.3,2.8c0,0.7-0.2,1.3-0.5,1.8c-0.3,0.5-0.8,0.9-1.4,1.1
		c0.7,0.2,1.2,0.5,1.6,1c0.4,0.5,0.6,1.1,0.6,1.8c0,1.3-0.4,2.3-1.2,3c-0.8,0.7-2.1,1-3.7,1h-5.4v-13.4H691.3z M689.7,322.8h1.7
		c0.7,0,1.2-0.1,1.5-0.4s0.5-0.6,0.5-1.1c0-0.6-0.2-1-0.5-1.2s-0.9-0.4-1.6-0.4h-1.6V322.8z M689.7,328.1h2.1c0.6,0,1-0.1,1.3-0.4
		c0.3-0.3,0.5-0.6,0.5-1.1c0-1.1-0.6-1.7-1.7-1.7h-2.3V328.1z"/>
	<path class="st29" d="M704,317.2c1.6,0,2.8,0.4,3.7,1.1s1.3,1.7,1.3,3c0,0.9-0.2,1.7-0.6,2.3s-1,1.1-1.8,1.5l2.8,5.4v0.1H706
		l-2.4-4.7h-1.8v4.7h-3.2v-13.4H704z M701.9,323.4h2c0.6,0,1.1-0.2,1.4-0.5c0.3-0.3,0.5-0.8,0.5-1.4c0-0.6-0.2-1-0.5-1.4
		c-0.3-0.3-0.8-0.5-1.4-0.5h-2V323.4z"/>
	<path class="st29" d="M720.3,317.2v2.5h-6v2.8h5.1v2.4h-5.1v3.2h6v2.5H711v-13.4H720.3z"/>
	<path class="st29" d="M725.4,317.2h3l5,13.4H730l-0.8-2.5h-4.4l-0.8,2.5h-3.5L725.4,317.2z M728.4,325.6L727,321l-1.4,4.7H728.4z"
		/>
	<path class="st29" d="M733.7,319.7v-2.5H745v2.5h-4v10.9h-3.2v-10.9H733.7z"/>
	<path class="st29" d="M746.3,330.6v-13.4h3.2v5.3h4.8v-5.3h3.2v13.4h-3.2V325h-4.8v5.6H746.3z"/>
</g>
<path class="st27" d="M138.7,161.1c0,1.8-1.5,3.3-3.3,3.3s-3.3-1.5-3.3-3.3c0-1.8,1.5-3.3,3.3-3.3
	C137.2,157.8,138.7,159.3,138.7,161.1C138.7,161.1,138.7,161.1,138.7,161.1z"/>
<path class="st27" d="M160.7,161.1c0,1.8-1.5,3.3-3.3,3.3s-3.3-1.5-3.3-3.3c0-1.8,1.5-3.3,3.3-3.3
	C159.2,157.8,160.7,159.3,160.7,161.1C160.7,161.1,160.7,161.1,160.7,161.1z"/>
<path class="st27" d="M182.8,161.1c0,1.8-1.5,3.3-3.3,3.3s-3.3-1.5-3.3-3.3c0-1.8,1.5-3.3,3.3-3.3
	C181.3,157.8,182.8,159.3,182.8,161.1C182.8,161.1,182.8,161.1,182.8,161.1z"/>
<path class="st27" d="M138.7,177.9c-0.1,1.8-1.6,3.3-3.4,3.2c-1.8-0.1-3.3-1.6-3.2-3.4c0.1-1.8,1.6-3.3,3.4-3.2
	C137.3,174.5,138.7,176.1,138.7,177.9z"/>
<path class="st27" d="M160.7,178.7c-0.1,1.8-1.6,3.3-3.4,3.2c-1.8-0.1-3.3-1.6-3.2-3.4c0.1-1.8,1.6-3.3,3.4-3.2
	C159.3,175.3,160.8,176.8,160.7,178.7C160.7,178.7,160.7,178.7,160.7,178.7z"/>
<path class="st27" d="M182.8,179.5c-0.1,1.8-1.6,3.3-3.4,3.2c-1.8-0.1-3.3-1.6-3.2-3.4c0.1-1.8,1.6-3.3,3.4-3.2
	C181.4,176.1,182.8,177.6,182.8,179.5C182.8,179.5,182.8,179.5,182.8,179.5z"/>
<path class="st27" d="M138.7,123.3c0,1.8-1.5,3.3-3.3,3.3c-1.8,0-3.3-1.5-3.3-3.3c0-1.8,1.5-3.3,3.3-3.3S138.7,121.5,138.7,123.3
	L138.7,123.3z"/>
<path class="st27" d="M160.7,123.3c0,1.8-1.5,3.3-3.3,3.3c-1.8,0-3.3-1.5-3.3-3.3c0-1.8,1.5-3.3,3.3-3.3S160.7,121.5,160.7,123.3
	L160.7,123.3z"/>
<path class="st27" d="M182.8,123.3c0,1.8-1.5,3.3-3.3,3.3c-1.8,0-3.3-1.5-3.3-3.3c0-1.8,1.5-3.3,3.3-3.3S182.8,121.5,182.8,123.3
	L182.8,123.3z"/>
<path class="st27" d="M138.7,140.1c-0.1,1.8-1.6,3.3-3.4,3.2c-1.8-0.1-3.3-1.6-3.2-3.4c0.1-1.8,1.6-3.3,3.4-3.2c0,0,0,0,0,0
	C137.3,136.7,138.7,138.3,138.7,140.1z"/>
<path class="st27" d="M160.7,140.9c-0.1,1.8-1.6,3.3-3.4,3.2c-1.8-0.1-3.3-1.6-3.2-3.4c0.1-1.8,1.6-3.3,3.4-3.2c0,0,0,0,0,0
	C159.3,137.5,160.8,139.1,160.7,140.9z"/>
<path class="st27" d="M182.8,141.7c-0.1,1.8-1.6,3.3-3.4,3.2c-1.8-0.1-3.3-1.6-3.2-3.4c0.1-1.8,1.6-3.3,3.4-3.2
	C181.4,138.3,182.8,139.9,182.8,141.7z"/>
<path class="st27" d="M203,161.1c0,1.8-1.5,3.3-3.3,3.3s-3.3-1.5-3.3-3.3c0-1.8,1.5-3.3,3.3-3.3C201.5,157.8,203,159.3,203,161.1
	C203,161.1,203,161.1,203,161.1z"/>
<path class="st27" d="M225.1,161.1c0,1.8-1.5,3.3-3.3,3.3s-3.3-1.5-3.3-3.3c0-1.8,1.5-3.3,3.3-3.3
	C223.6,157.8,225.1,159.3,225.1,161.1C225.1,161.1,225.1,161.1,225.1,161.1z"/>
<path class="st27" d="M247.1,161.1c0,1.8-1.5,3.3-3.3,3.3s-3.3-1.5-3.3-3.3c0-1.8,1.5-3.3,3.3-3.3
	C245.6,157.8,247.1,159.3,247.1,161.1C247.1,161.1,247.1,161.1,247.1,161.1z"/>
<path class="st27" d="M203,177.9c-0.1,1.8-1.6,3.3-3.4,3.2c-1.8-0.1-3.3-1.6-3.2-3.4c0.1-1.8,1.6-3.3,3.4-3.2
	C201.6,174.5,203.1,176.1,203,177.9C203,177.9,203,177.9,203,177.9z"/>
<path class="st27" d="M225.1,178.7c-0.1,1.8-1.6,3.3-3.4,3.2c-1.8-0.1-3.3-1.6-3.2-3.4c0.1-1.8,1.6-3.3,3.4-3.2
	C223.7,175.3,225.1,176.8,225.1,178.7C225.1,178.7,225.1,178.7,225.1,178.7z"/>
<path class="st27" d="M247.1,179.5c-0.1,1.8-1.6,3.3-3.4,3.2c-1.8-0.1-3.3-1.6-3.2-3.4c0.1-1.8,1.6-3.3,3.4-3.2
	C245.7,176.1,247.2,177.6,247.1,179.5C247.1,179.5,247.1,179.5,247.1,179.5z"/>
<path class="st27" d="M203,123.3c0,1.8-1.5,3.3-3.3,3.3c-1.8,0-3.3-1.5-3.3-3.3c0-1.8,1.5-3.3,3.3-3.3S203,121.5,203,123.3
	L203,123.3z"/>
<path class="st27" d="M225.1,123.3c0,1.8-1.5,3.3-3.3,3.3c-1.8,0-3.3-1.5-3.3-3.3c0-1.8,1.5-3.3,3.3-3.3S225.1,121.5,225.1,123.3
	L225.1,123.3z"/>
<path class="st27" d="M247.1,123.3c0,1.8-1.5,3.3-3.3,3.3c-1.8,0-3.3-1.5-3.3-3.3c0-1.8,1.5-3.3,3.3-3.3S247.1,121.5,247.1,123.3
	L247.1,123.3z"/>
<path class="st27" d="M203,140.1c-0.1,1.8-1.6,3.3-3.4,3.2c-1.8-0.1-3.3-1.6-3.2-3.4c0.1-1.8,1.6-3.3,3.4-3.2c0,0,0,0,0,0
	C201.6,136.7,203.1,138.3,203,140.1C203,140.1,203,140.1,203,140.1z"/>
<path class="st27" d="M225.1,140.9c-0.1,1.8-1.6,3.3-3.4,3.2c-1.8-0.1-3.3-1.6-3.2-3.4c0.1-1.8,1.6-3.3,3.4-3.2c0,0,0,0,0,0
	C223.7,137.5,225.1,139.1,225.1,140.9z"/>
<path class="st27" d="M247.1,141.7c-0.1,1.8-1.6,3.3-3.4,3.2c-1.8-0.1-3.3-1.6-3.2-3.4c0.1-1.8,1.6-3.3,3.4-3.2
	C245.7,138.3,247.2,139.9,247.1,141.7z"/>
<rect y="74.1" class="st27" width="25" height="275"/>
<rect x="1267" y="74.1" class="st28" width="25" height="275"/>
</svg>
